<?xml version="1.0" encoding="UTF-8"?>
<!DOCTYPE svg PUBLIC "-//W3C//DTD SVG 1.1//EN" "http://www.w3.org/Graphics/SVG/1.1/DTD/svg11.dtd">
<!-- Creator: CorelDRAW 2018 (64-Bit Not for commercial use) -->
<svg xmlns="http://www.w3.org/2000/svg" xml:space="preserve" width="3914px" height="519px" version="1.1" style="shape-rendering:geometricPrecision; text-rendering:geometricPrecision; image-rendering:optimizeQuality; fill-rule:evenodd; clip-rule:evenodd"
viewBox="0 0 1474.41 195.47"
 xmlns:xlink="http://www.w3.org/1999/xlink">
 <defs>
  <style type="text/css">
   <![CDATA[
    .fil1 {fill:#00A859}
    .fil0 {fill:#ED3237}
    .fil2 {fill:#00A859;fill-rule:nonzero}
    .fil3 {fill:#ED3237;fill-rule:nonzero}
   ]]>
  </style>
 </defs>
 <g id="Layer_x0020_1">
  <metadata id="CorelCorpID_0Corel-Layer"/>
  <path class="fil0" d="M5.71 7.62l1.91 -1.91c7.61,-7.61 20.07,-7.61 27.68,0l62.44 62.44 62.44 -62.44c7.61,-7.61 20.06,-7.61 27.67,0l1.91 1.91c7.61,7.61 7.61,20.07 0,27.68l-62.43 62.44 62.43 62.44c7.61,7.61 7.61,20.06 0,27.67l-1.91 1.91c-7.61,7.61 -20.06,7.61 -27.67,0l-62.44 -62.43 -62.44 62.43c-7.61,7.61 -20.07,7.61 -27.68,0l-1.91 -1.91c-7.61,-7.61 -7.61,-20.06 0,-27.67l62.44 -62.44 -62.44 -62.44c-7.61,-7.61 -7.61,-20.07 0,-27.68z"/>
  <path class="fil1" d="M97.74 127.33l0 0 0 0 92.02 -92.03c7.61,-7.61 7.61,-20.07 0,-27.68l-1.91 -1.91c-7.61,-7.61 -20.06,-7.61 -27.67,0l-62.44 62.44 -16.28 -16.28c-7.61,-7.61 -20.07,-7.61 -27.68,0l-1.91 1.91c-7.61,7.61 -7.61,20.07 0,27.68l45.87 45.87 0 0z"/>
  <path class="fil2" d="M380.38 39.73c2.62,0 3.93,1.31 3.93,3.93l0 16.95c0,2.62 -1.31,3.93 -3.93,3.93l-89.41 0c-3.45,0 -5.89,0.89 -7.32,2.68 -1.43,1.78 -2.14,4.22 -2.14,7.31l0 6.07c0,6.67 3.09,10 9.28,10l66.93 0c10.35,0 18.14,2.64 23.38,7.94 5.23,5.29 7.85,12.88 7.85,22.76l0 14.27c0,8.69 -2.56,15.71 -7.68,21.06 -5.11,5.36 -13.08,8.04 -23.91,8.04l-98.88 0c-2.73,0 -4.1,-1.31 -4.1,-3.93l0 -16.96c0,-2.61 1.37,-3.92 4.1,-3.92l93.7 0c3.45,0 5.89,-0.9 7.32,-2.68 1.43,-1.79 2.14,-4.22 2.14,-7.32l0 -7.32c0,-6.66 -3.09,-9.99 -9.28,-9.99l-66.93 0c-10.35,0 -18.14,-2.65 -23.38,-7.94 -5.23,-5.3 -7.85,-12.88 -7.85,-22.76l0 -13.03c0,-8.68 2.56,-15.7 7.67,-21.06 5.12,-5.35 13.09,-8.03 23.92,-8.03l94.59 0z"/>
  <path id="1" class="fil2" d="M518.7 66.68c2.14,0 3.21,1.07 3.21,3.21l0 15c0,2.14 -1.07,3.21 -3.21,3.21l-69.25 0c-3.92,0 -7.14,0.33 -9.63,0.98 -2.5,0.65 -4.47,1.73 -5.89,3.21 -1.43,1.49 -2.44,3.51 -3.04,6.07 -0.59,2.56 -0.89,5.68 -0.89,9.37l0 15.89c0,3.8 0.3,6.96 0.89,9.45 0.6,2.5 1.61,4.5 3.04,5.98 1.42,1.49 3.39,2.56 5.89,3.22 2.49,0.65 5.71,0.98 9.63,0.98l69.25 0c2.14,0 3.21,1.07 3.21,3.21l0 14.99c0,2.14 -1.07,3.22 -3.21,3.22l-71.75 0c-8.09,0 -14.84,-0.66 -20.25,-1.97 -5.42,-1.31 -9.76,-3.42 -13.03,-6.33 -3.27,-2.92 -5.62,-6.67 -7.05,-11.25 -1.43,-4.58 -2.14,-10.08 -2.14,-16.51l0 -25.7c0,-6.42 0.71,-11.93 2.14,-16.51 1.43,-4.58 3.78,-8.33 7.05,-11.24 3.27,-2.92 7.61,-5.06 13.03,-6.43 5.41,-1.36 12.16,-2.05 20.25,-2.05l71.75 0z"/>
  <path id="2" class="fil2" d="M630.25 66.68c7.97,0 14.69,0.69 20.17,2.05 5.47,1.37 9.84,3.51 13.12,6.43 3.27,2.91 5.62,6.66 7.05,11.24 1.42,4.58 2.14,10.09 2.14,16.51l0 25.7c0,6.43 -0.72,11.93 -2.14,16.51 -1.43,4.58 -3.78,8.33 -7.05,11.25 -3.28,2.91 -7.65,5.02 -13.12,6.33 -5.48,1.31 -12.2,1.97 -20.17,1.97l-50.51 0c-8.09,0 -14.84,-0.66 -20.26,-1.97 -5.41,-1.31 -9.75,-3.42 -13.03,-6.33 -3.27,-2.92 -5.62,-6.67 -7.05,-11.25 -1.42,-4.58 -2.14,-10.08 -2.14,-16.51l0 -25.7c0,-6.42 0.72,-11.93 2.14,-16.51 1.43,-4.58 3.78,-8.33 7.05,-11.24 3.28,-2.92 7.62,-5.06 13.03,-6.43 5.42,-1.36 12.17,-2.05 20.26,-2.05l50.51 0zm-67.46 57.47c0,3.81 0.29,6.96 0.89,9.46 0.59,2.5 1.63,4.49 3.12,5.98 1.49,1.49 3.48,2.56 5.98,3.21 2.5,0.66 5.65,0.98 9.46,0.98l45.51 0c3.93,0 7.14,-0.32 9.64,-0.98 2.5,-0.65 4.49,-1.72 5.98,-3.21 1.48,-1.49 2.53,-3.48 3.12,-5.98 0.6,-2.5 0.89,-5.65 0.89,-9.46l0 -16.95c0,-3.69 -0.29,-6.79 -0.89,-9.28 -0.59,-2.5 -1.64,-4.53 -3.12,-6.07 -1.49,-1.55 -3.48,-2.62 -5.98,-3.22 -2.5,-0.59 -5.71,-0.89 -9.64,-0.89l-45.51 0c-3.81,0 -6.96,0.3 -9.46,0.89 -2.5,0.6 -4.49,1.67 -5.98,3.22 -1.49,1.54 -2.53,3.57 -3.12,6.07 -0.6,2.49 -0.89,5.59 -0.89,9.28l0 16.95z"/>
  <path id="3" class="fil2" d="M785.7 66.68c2.14,0 3.22,1.07 3.22,3.21l0 15c0,2.14 -1.08,3.21 -3.22,3.21l-47.47 0c-3.81,0 -6.96,0.33 -9.46,0.98 -2.5,0.65 -4.49,1.73 -5.98,3.21 -1.49,1.49 -2.53,3.51 -3.12,6.07 -0.6,2.56 -0.9,5.68 -0.9,9.37l0 53.01c0,2.62 -1.31,3.93 -3.92,3.93l-17.49 0c-2.74,0 -4.11,-1.31 -4.11,-3.93l0 -57.83c0,-6.42 0.72,-11.93 2.14,-16.51 1.43,-4.58 3.78,-8.33 7.05,-11.24 3.28,-2.92 7.62,-5.06 13.03,-6.43 5.42,-1.36 12.17,-2.05 20.26,-2.05l49.97 0z"/>
  <path id="4" class="fil2" d="M894.04 66.68c6.07,0 11.09,0.51 15.08,1.52 3.98,1.01 7.14,2.68 9.46,5 2.32,2.32 3.95,5.35 4.91,9.1 0.95,3.75 1.42,8.3 1.42,13.65l0 16.96c0,3.8 -0.83,6.45 -2.49,7.94 -1.67,1.49 -4.23,2.23 -7.68,2.23l-90.13 0 0 4.28c0,5.6 1.34,9.64 4.02,12.14 2.67,2.5 7.88,3.75 15.61,3.75l74.43 0c2.14,0 3.21,1.07 3.21,3.21l0 14.99c0,2.14 -1.07,3.22 -3.21,3.22l-76.93 0c-8.09,0 -14.84,-0.66 -20.25,-1.97 -5.42,-1.31 -9.76,-3.42 -13.03,-6.33 -3.27,-2.92 -5.62,-6.67 -7.05,-11.25 -1.43,-4.58 -2.14,-10.08 -2.14,-16.51l0 -25.7c0,-6.42 0.71,-11.93 2.14,-16.51 1.43,-4.58 3.78,-8.33 7.05,-11.24 3.27,-2.92 7.61,-5.06 13.03,-6.43 5.41,-1.36 12.16,-2.05 20.25,-2.05l52.3 0zm-69.43 40.52l72.28 0c2.03,0 3.04,-1.02 3.04,-3.04l0 -7.49c0,-3.69 -0.78,-6.31 -2.32,-7.86 -1.55,-1.54 -4.41,-2.32 -8.57,-2.32l-44.8 0c-7.73,0 -12.94,1.22 -15.61,3.66 -2.68,2.44 -4.02,6.52 -4.02,12.23l0 4.82z"/>
  <path id="5" class="fil3" d="M1080.37 39.73c2.73,0 4.1,1.31 4.1,3.93l0 17.49c0,2.74 -1.37,4.1 -4.1,4.1l-56.04 0 0 95.49c0,2.62 -1.31,3.93 -3.93,3.93l-19.45 0c-2.62,0 -3.93,-1.31 -3.93,-3.93l0 -95.49 -56.04 0c-2.74,0 -4.11,-1.36 -4.11,-4.1l0 -17.49c0,-2.62 1.37,-3.93 4.11,-3.93l139.39 0z"/>
  <path id="6" class="fil3" d="M1188.17 66.68c2.14,0 3.21,1.07 3.21,3.21l0 15c0,2.14 -1.07,3.21 -3.21,3.21l-47.48 0c-3.81,0 -6.96,0.33 -9.46,0.98 -2.5,0.65 -4.49,1.73 -5.98,3.21 -1.48,1.49 -2.52,3.51 -3.12,6.07 -0.59,2.56 -0.89,5.68 -0.89,9.37l0 53.01c0,2.62 -1.31,3.93 -3.93,3.93l-17.49 0c-2.74,0 -4.1,-1.31 -4.1,-3.93l0 -57.83c0,-6.42 0.71,-11.93 2.14,-16.51 1.43,-4.58 3.78,-8.33 7.05,-11.24 3.27,-2.92 7.61,-5.06 13.03,-6.43 5.41,-1.36 12.16,-2.05 20.25,-2.05l49.98 0z"/>
  <path id="7" class="fil3" d="M1284.9 66.68c7.97,0 14.7,0.69 20.17,2.05 5.47,1.37 9.84,3.51 13.12,6.43 3.27,2.91 5.62,6.66 7.05,11.24 1.42,4.58 2.14,10.09 2.14,16.51l0 47.48c0,2.85 -0.21,5.2 -0.63,7.05 -0.41,1.84 -1.13,3.3 -2.14,4.37 -1.01,1.07 -2.35,1.81 -4.01,2.23 -1.67,0.42 -3.81,0.63 -6.43,0.63l-84.95 0c-5.24,0 -9.61,-0.51 -13.12,-1.52 -3.51,-1.01 -6.34,-2.53 -8.48,-4.55 -2.14,-2.03 -3.66,-4.64 -4.55,-7.86 -0.89,-3.21 -1.34,-7.02 -1.34,-11.42l0 -8.57c0,-3.68 0.45,-6.99 1.34,-9.9 0.89,-2.92 2.41,-5.38 4.55,-7.41 2.14,-2.02 4.97,-3.54 8.48,-4.55 3.51,-1.01 7.88,-1.52 13.12,-1.52l72.64 0 0 -3.39c0,-2.85 -0.3,-5.29 -0.9,-7.31 -0.59,-2.03 -1.6,-3.66 -3.03,-4.91 -1.43,-1.25 -3.39,-2.17 -5.89,-2.77 -2.5,-0.59 -5.71,-0.89 -9.64,-0.89l-74.6 0c-2.14,0 -3.21,-1.07 -3.21,-3.21l0 -15c0,-2.14 1.07,-3.21 3.21,-3.21l77.1 0zm11.78 78.35c1.9,0 3.24,-0.44 4.02,-1.34 0.77,-0.89 1.16,-2.46 1.16,-4.73l0 -15.7 -65.33 0c-3.68,0 -6.27,0.74 -7.76,2.23 -1.49,1.49 -2.23,3.66 -2.23,6.51l0 3.75c0,3.21 0.74,5.56 2.23,7.05 1.49,1.49 4.08,2.23 7.76,2.23l60.15 0z"/>
  <path id="8" class="fil3" d="M1367.89 30.81c2.62,0 3.93,1.31 3.93,3.92l0 70.68 32.84 0c2.5,0 4.61,-0.09 6.33,-0.27 1.73,-0.18 3.25,-0.53 4.56,-1.07 1.3,-0.53 2.46,-1.28 3.48,-2.23 1.01,-0.95 2.11,-2.26 3.3,-3.92l19.99 -28.2c0.71,-1.08 1.45,-1.85 2.23,-2.32 0.77,-0.48 1.81,-0.72 3.12,-0.72l20.17 0c1.31,0 2.14,0.51 2.5,1.52 0.36,1.01 0.12,2.11 -0.72,3.3l-23.02 31.59c-3.57,4.88 -7.26,8.69 -11.06,11.42 4.87,2.74 9.1,6.55 12.67,11.43l25.34 34.26c0.71,0.96 0.86,1.94 0.45,2.95 -0.42,1.01 -1.28,1.52 -2.59,1.52l-19.99 0c-1.55,0 -2.68,-0.18 -3.39,-0.54 -0.72,-0.36 -1.43,-1.01 -2.14,-1.96l-21.78 -29.99c-2.14,-2.85 -4.43,-4.82 -6.87,-5.89 -2.44,-1.07 -6.1,-1.6 -10.98,-1.6l-34.44 0 0 36.05c0,2.62 -1.31,3.93 -3.93,3.93l-17.49 0c-2.74,0 -4.1,-1.31 -4.1,-3.93l0 -126.01c0,-2.61 1.36,-3.92 4.1,-3.92l17.49 0z"/>
 </g>
</svg>
