<svg xmlns="http://www.w3.org/2000/svg" xmlns:xlink="http://www.w3.org/1999/xlink" xmlns:lucid="lucid" width="1619.98" height="1355.15"><g transform="translate(1838.45 0)" lucid:page-tab-id="qfnPCQOhPw34"><path d="M-3392 0H64v1360h-3456z" fill="#fff"/><path d="M-1580 1055.2h420v260h-420z" fill-opacity="0"/><path d="M-1560 1055.2h20m10 0h20m10 0h20m10 0h20m10 0h20m10 0h20m10 0h20m10 0h20m10 0h20m10 0h20m10 0h20m10 0h20m10 0h20m10 0h10v9.64m0 9.62v19.26m0 9.63v19.26m0 9.64v19.26m0 9.63v19.26m0 9.62v19.26m0 9.63v19.27m0 9.63v19.26m0 9.63v19.25m0 9.63v9.63h-10m-10 0h-20m-10 0h-20m-10 0h-20m-10 0h-20m-10 0h-20m-10 0h-20m-10 0h-20m-10 0h-20m-10 0h-20m-10 0h-20m-10 0h-20m-10 0h-20m-10 0h-20m-10 0h-10v-9.62m0-9.63v-19.26m0-9.64v-19.26m0-9.63v-19.26m0-9.62v-19.26m0-9.63v-19.27m0-9.63v-19.26m0-9.63v-19.25m0-9.63v-19.26m0-9.62v-9.63h10" stroke="#000" stroke-width="2" fill="none"/><path d="M-1580 600h420v309.5h-420z" fill-opacity="0"/><path d="M-1560 600h20m10 0h20m10 0h20m10 0h20m10 0h20m10 0h20m10 0h20m10 0h20m10 0h20m10 0h20m10 0h20m10 0h20m10 0h20m10 0h10v10.32m0 10.3v20.65m0 10.3v20.65m0 10.3v20.65m0 10.3v20.65m0 10.3v20.65m0 10.3v20.65m0 10.3v20.65m0 10.3v20.65m0 10.3v20.65m0 10.3v10.33h-10m-10 0h-20m-10 0h-20m-10 0h-20m-10 0h-20m-10 0h-20m-10 0h-20m-10 0h-20m-10 0h-20m-10 0h-20m-10 0h-20m-10 0h-20m-10 0h-20m-10 0h-20m-10 0h-10v-10.32m0-10.3v-20.65m0-10.3v-20.65m0-10.3v-20.65m0-10.3v-20.65m0-10.3v-20.65m0-10.3v-20.65m0-10.3v-20.65m0-10.3v-20.65m0-10.3v-20.65m0-10.3V600h10" stroke="#000" stroke-width="2" fill="none"/><path d="M-300 500h60v20h-60z" fill="none"/><use xlink:href="#a" transform="matrix(1,0,0,1,-300,500.0000000000001) translate(10.524999999999999 14.4)"/><use xlink:href="#b" transform="matrix(1,0,0,1,-300,500.0000000000001) translate(0.5249999999999986 36)"/><use xlink:href="#c" transform="matrix(1,0,0,1,-300,500.0000000000001) translate(12.049999999999997 57.6)"/><path d="M-921 780h600v269.5h-600z" fill-opacity="0"/><path d="M-901 780h20m10 0h20m10 0h20m10 0h20m10 0h20m10 0h20m10 0h20m10 0h20m10 0h20m10 0h20m10 0h20m10 0h20m10 0h20m10 0h20m10 0h20m10 0h20m10 0h20m10 0h20m10 0h20m10 0h10v9.98m0 9.98v19.97m0 9.98v19.97m0 9.98v19.96m0 10v19.96m0 9.98v19.96m0 10v19.95m0 9.98v19.96m0 9.97v19.97m0 9.98v9.98h-10m-10 0h-20m-10 0h-20m-10 0h-20m-10 0h-20m-10 0h-20m-10 0h-20m-10 0h-20m-10 0h-20m-10 0h-20m-10 0h-20m-10 0h-20m-10 0h-20m-10 0h-20m-10 0h-20m-10 0h-20m-10 0h-20m-10 0h-20m-10 0h-20m-10 0h-20m-10 0h-10v-9.98m0-9.98v-19.97m0-9.98v-19.97m0-9.98V949.7m0-10v-19.96m0-9.98V889.8m0-10v-19.95m0-9.98V829.9m0-9.97v-19.97m0-9.98V780h10" stroke="#000" stroke-width="2" fill="none"/><use xlink:href="#d" transform="matrix(1,0,0,1,-916,785) translate(115.875 258.37235200000003)"/><use xlink:href="#e" transform="matrix(1,0,0,1,-916,785) translate(145.825 258.37235200000003)"/><use xlink:href="#f" transform="matrix(1,0,0,1,-916,785) translate(207.675 258.37235200000003)"/><use xlink:href="#g" transform="matrix(1,0,0,1,-916,785) translate(288.425 258.37235200000003)"/><use xlink:href="#h" transform="matrix(1,0,0,1,-916,785) translate(347.32500000000005 258.37235200000003)"/><use xlink:href="#i" transform="matrix(1,0,0,1,-916,785) translate(357.32500000000005 258.37235200000003)"/><path d="M-731 979.2c0 11-35.82 19.9-80 19.9s-80-8.9-80-19.9V819.9c0-11 35.82-19.9 80-19.9s80 8.9 80 19.9z" fill="#fff"/><path d="M-745.15 990.48l-1.78.65-5.84 1.72-8.42 1.93-2.4.4m-9.4 1.54l-.12.02-15.93 1.6-2.9.13m-9.53.36l-6.83.27h-2.7l-9.52-.28m-9.52-.3h-.53l-16.44-1.54-2-.3m-9.42-1.47l-1.04-.16-8.83-1.94-6.1-1.76-2.45-.87m-8.63-4l-1.17-.77-.92-.72-.73-.63-.57-.56-.46-.53-.36-.47-.3-.43-.24-.4-.2-.4-.16-.36-.12-.34-.1-.33-.08-.33-.05-.32-.04-.32V968.58m0-10.62v-21.24m0-10.62v-21.23m0-10.62V873m0-10.6v-21.25m0-10.62V819.6l.04-.32.05-.32.06-.33.1-.34.12-.35.16-.37.2-.38.23-.4.3-.43.35-.47.45-.5.55-.56.7-.63.9-.7 1.16-.78.15-.1m8.62-3.98l1.78-.66 5.84-1.72 8.42-1.93 2.4-.4m9.4-1.54l.12-.03 15.93-1.6 2.9-.12m9.53-.37l6.83-.27h2.7l9.52.3m9.52.28l.53.02 16.44 1.53 2 .3m9.42 1.47l1.04.17 8.83 1.94 6.1 1.77 2.45.87m8.63 4l1.17.78.92.7.73.64.57.56.46.52.36.47.3.44.24.4.2.4.16.36.12.35.1.33.08.33.05.33.04.32v10.99m0 10.62v21.24m0 10.6v21.25m0 10.62v21.23m0 10.62v21.24m0 10.62v10.94l-.04.3-.05.34-.06.32-.1.34-.12.35-.16.36-.2.38-.23.4-.3.44-.35.47-.45.52-.55.55-.7.63-.9.7-1.16.8-.15.08" stroke="#000" stroke-width="2" fill="none"/><path d="M-731 819.9c0 11-35.82 19.92-80 19.92s-80-8.9-80-19.9" fill="none"/><path d="M-731 819.9v.33l-.04.32-.05.32-.06.32-.1.33-.12.35-.16.36-.2.38-.23.4-.3.43-.35.47-.45.5-.55.57-.7.6-.9.7-1.16.8-.15.1m-8.62 4l-1.78.64-5.84 1.72-8.42 1.93-2.4.4m-9.4 1.53l-.12.02-15.93 1.6-2.9.13m-9.53.37l-6.83.26-2.7.02-9.52-.3m-9.52-.28l-.53-.02-16.44-1.52-2-.3m-9.42-1.48l-1.04-.16-8.83-1.95-6.1-1.75-2.45-.86m-8.63-4l-1.17-.8-.92-.7-.73-.64-.57-.56-.46-.52-.36-.47-.3-.42-.24-.4-.2-.4-.16-.36-.12-.35-.1-.33-.08-.33-.05-.3-.04-.33v-.36" stroke="#000" stroke-width="2" fill="none"/><use xlink:href="#j" transform="matrix(1,0,0,1,-886,844.8221632653062) translate(55.005 149.08800000000002)"/><path d="M-541 979.2c0 11-35.82 19.9-80 19.9s-80-8.9-80-19.9V819.9c0-11 35.82-19.9 80-19.9s80 8.9 80 19.9z" fill="#fff"/><path d="M-555.15 990.48l-1.78.65-5.84 1.72-8.42 1.93-2.4.4m-9.4 1.54l-.12.02-15.93 1.6-2.9.13m-9.53.36l-6.83.27h-2.7l-9.52-.28m-9.52-.3h-.53l-16.44-1.54-2-.3m-9.42-1.47l-1.04-.16-8.83-1.94-6.1-1.76-2.45-.87m-8.63-4l-1.17-.77-.92-.72-.73-.63-.57-.56-.46-.53-.36-.47-.3-.43-.24-.4-.2-.4-.16-.36-.12-.34-.1-.33-.08-.33-.05-.32-.04-.32V968.58m0-10.62v-21.24m0-10.62v-21.23m0-10.62V873m0-10.6v-21.25m0-10.62V819.6l.04-.32.05-.32.06-.33.1-.34.12-.35.16-.37.2-.38.23-.4.3-.43.35-.47.45-.5.55-.56.7-.63.9-.7 1.16-.78.15-.1m8.62-3.98l1.78-.66 5.84-1.72 8.42-1.93 2.4-.4m9.4-1.54l.12-.03 15.93-1.6 2.9-.12m9.53-.37l6.83-.27h2.7l9.52.3m9.52.28l.53.02 16.44 1.53 2 .3m9.42 1.47l1.04.17 8.83 1.94 6.1 1.77 2.45.87m8.63 4l1.17.78.92.7.73.64.57.56.46.52.36.47.3.44.24.4.2.4.16.36.12.35.1.33.08.33.05.33.04.32v10.99m0 10.62v21.24m0 10.6v21.25m0 10.62v21.23m0 10.62v21.24m0 10.62v10.94l-.04.3-.05.34-.06.32-.1.34-.12.35-.16.36-.2.38-.23.4-.3.44-.35.47-.45.52-.55.55-.7.63-.9.7-1.16.8-.15.08" stroke="#000" stroke-width="2" fill="none"/><path d="M-541 819.9c0 11-35.82 19.92-80 19.92s-80-8.9-80-19.9" fill="none"/><path d="M-541 819.9v.33l-.04.32-.05.32-.06.32-.1.33-.12.35-.16.36-.2.38-.23.4-.3.43-.35.47-.45.5-.55.57-.7.6-.9.7-1.16.8-.15.1m-8.62 4l-1.78.64-5.84 1.72-8.42 1.93-2.4.4m-9.4 1.53l-.12.02-15.93 1.6-2.9.13m-9.53.37l-6.83.26-2.7.02-9.52-.3m-9.52-.28l-.53-.02-16.44-1.52-2-.3m-9.42-1.48l-1.04-.16-8.83-1.95-6.1-1.75-2.45-.86m-8.63-4l-1.17-.8-.92-.7-.73-.64-.57-.56-.46-.52-.36-.47-.3-.42-.24-.4-.2-.4-.16-.36-.12-.35-.1-.33-.08-.33-.05-.3-.04-.33v-.36" stroke="#000" stroke-width="2" fill="none"/><use xlink:href="#j" transform="matrix(1,0,0,1,-696,844.8221632653062) translate(55.005 149.08800000000002)"/><path d="M-341 979.2c0 11-35.82 19.9-80 19.9s-80-8.9-80-19.9V819.9c0-11 35.82-19.9 80-19.9s80 8.9 80 19.9z" fill="#fff"/><path d="M-355.15 990.48l-1.78.65-5.84 1.72-8.42 1.93-2.4.4m-9.4 1.54l-.12.02-15.93 1.6-2.9.13m-9.53.36l-6.83.27h-2.7l-9.52-.28m-9.52-.3h-.53l-16.44-1.54-2-.3m-9.42-1.47l-1.04-.16-8.83-1.94-6.1-1.76-2.45-.87m-8.63-4l-1.17-.77-.92-.72-.73-.63-.57-.56-.46-.53-.36-.47-.3-.43-.24-.4-.2-.4-.16-.36-.12-.34-.1-.33-.08-.33-.05-.32-.04-.32V968.58m0-10.62v-21.24m0-10.62v-21.23m0-10.62V873m0-10.6v-21.25m0-10.62V819.6l.04-.32.05-.32.06-.33.1-.34.12-.35.16-.37.2-.38.23-.4.3-.43.35-.47.45-.5.55-.56.7-.63.9-.7 1.16-.78.15-.1m8.62-3.98l1.78-.66 5.84-1.72 8.42-1.93 2.4-.4m9.4-1.54l.12-.03 15.93-1.6 2.9-.12m9.53-.37l6.83-.27h2.7l9.52.3m9.52.28l.53.02 16.44 1.53 2 .3m9.42 1.47l1.04.17 8.83 1.94 6.1 1.77 2.45.87m8.63 4l1.17.78.92.7.73.64.57.56.46.52.36.47.3.44.24.4.2.4.16.36.12.35.1.33.08.33.05.33.04.32v10.99m0 10.62v21.24m0 10.6v21.25m0 10.62v21.23m0 10.62v21.24m0 10.62v10.94l-.04.3-.05.34-.06.32-.1.34-.12.35-.16.36-.2.38-.23.4-.3.44-.35.47-.45.52-.55.55-.7.63-.9.7-1.16.8-.15.08" stroke="#000" stroke-width="2" fill="none"/><path d="M-341 819.9c0 11-35.82 19.92-80 19.92s-80-8.9-80-19.9" fill="none"/><path d="M-341 819.9v.33l-.04.32-.05.32-.06.32-.1.33-.12.35-.16.36-.2.38-.23.4-.3.43-.35.47-.45.5-.55.57-.7.6-.9.7-1.16.8-.15.1m-8.62 4l-1.78.64-5.84 1.72-8.42 1.93-2.4.4m-9.4 1.53l-.12.02-15.93 1.6-2.9.13m-9.53.37l-6.83.26-2.7.02-9.52-.3m-9.52-.28l-.53-.02-16.44-1.52-2-.3m-9.42-1.48l-1.04-.16-8.83-1.95-6.1-1.75-2.45-.86m-8.63-4l-1.17-.8-.92-.7-.73-.64-.57-.56-.46-.52-.36-.47-.3-.42-.24-.4-.2-.4-.16-.36-.12-.35-.1-.33-.08-.33-.05-.3-.04-.33v-.36" stroke="#000" stroke-width="2" fill="none"/><use xlink:href="#j" transform="matrix(1,0,0,1,-496,844.8221632653062) translate(55.005 149.08800000000002)"/><path d="M-1560 1080h380v40h-380z" stroke="#000" stroke-width="2" fill="#fff"/><use xlink:href="#k" transform="matrix(1,0,0,1,-1555,1085) translate(166.7 14.4)"/><path d="M-1560 1140h380v40h-380z" stroke="#000" stroke-width="2" fill="#fff"/><use xlink:href="#l" transform="matrix(1,0,0,1,-1555,1145) translate(166.7 14.4)"/><path d="M-1560 1200h380v40h-380z" stroke="#000" stroke-width="2" fill="#fff"/><use xlink:href="#l" transform="matrix(1,0,0,1,-1555,1205) translate(166.7 14.4)"/><path d="M-1560 1260h380v40h-380z" stroke="#000" stroke-width="2" fill="#fff"/><use xlink:href="#l" transform="matrix(1,0,0,1,-1555,1265) translate(166.7 14.4)"/><path d="M-1048.23 1131H-1158v-2h109.77zm125.23 0h-26.78v-2H-923z" fill="#834187"/><path d="M-1157.97 1131h-1.03v-2h1.03zM-922 1131h-1.03v-2h1.03z" fill="#834187"/><use xlink:href="#m" transform="matrix(1,0,0,1,-1048.2349399322345,1119.2) translate(0.005000000000002558 14.4)"/><path d="M-921 480h620v269.5h-620z" fill-opacity="0"/><path d="M-901.32 480h19.7m9.83 0h19.7m9.83 0h19.68m9.85 0h19.7m9.83 0h19.68m9.84 0h19.68m9.85 0h19.68m9.85 0h19.68m9.84 0h19.7m9.83 0h19.68m9.84 0h19.68m9.84 0h19.7m9.83 0h19.68m9.84 0h19.67m9.85 0h19.68m9.84 0h19.68m9.84 0h19.7m9.83 0h19.67m9.84 0h19.7m9.83 0h19.7m9.83 0h9.84v9.98m0 9.98v19.97m0 9.98v19.97m0 9.98v19.96m0 10v19.96m0 9.98v19.96m0 10v19.95m0 9.98v19.96m0 9.97v19.97m0 9.98v9.98h-9.84m-9.84 0h-19.7m-9.83 0h-19.7m-9.83 0h-19.68m-9.85 0h-19.7m-9.83 0h-19.68m-9.84 0h-19.68m-9.85 0h-19.68m-9.85 0h-19.68m-9.84 0h-19.7m-9.83 0h-19.68m-9.84 0h-19.68m-9.84 0h-19.7m-9.83 0h-19.68m-9.84 0h-19.67m-9.85 0h-19.68m-9.84 0h-19.68m-9.84 0h-19.7m-9.83 0h-19.67m-9.84 0h-19.7m-9.83 0h-19.7m-9.83 0H-921v-9.98m0-9.98v-19.97m0-9.98v-19.97m0-9.98V649.7m0-10v-19.96m0-9.98V589.8m0-10v-19.95m0-9.98V529.9m0-9.97v-19.97m0-9.98V480h9.84" stroke="#000" stroke-width="2" fill="none"/><use xlink:href="#n" transform="matrix(1,0,0,1,-916,485) translate(109.92500000000001 258.37235200000003)"/><use xlink:href="#o" transform="matrix(1,0,0,1,-916,485) translate(201.82500000000002 258.37235200000003)"/><use xlink:href="#p" transform="matrix(1,0,0,1,-916,485) translate(260.82500000000005 258.37235200000003)"/><path d="M-721 698c0 12.15-40.3 22-90 22s-90-9.85-90-22V522c0-12.15 40.3-22 90-22s90 9.85 90 22z" fill="#fff"/><path d="M-737.02 710.5l-4.02 1.34-6.65 1.8-9.25 1.95-.8.12m-10.57 1.62l-1.25.2-16.33 1.6-3.72.15m-10.7.44l-5.02.22-5.66.04-10.7-.3m-10.68-.36l-15.95-1.32-5.34-.74m-10.58-1.6l-7.83-1.52-7.28-1.85-5.22-1.63-.4-.15m-9.72-4.42l-.07-.04-1.23-.8-.96-.72-.77-.64-.62-.58-.5-.53-.43-.5-.34-.44-.3-.42-.23-.4-.2-.37-.16-.36-.14-.33-.1-.33-.1-.32-.07-.3-.06-.32-.03-.3V688.2m0-9.78V658.9m0-9.8v-19.54m0-9.78v-19.56m0-9.78V570.9m0-9.8v-19.54m0-9.78V521.7l.03-.3.05-.32.06-.3.08-.33.1-.33.13-.34.16-.35.2-.37.22-.4.28-.4.32-.44.4-.47.48-.52.58-.56.73-.62.92-.7 1.14-.78.44-.26m9.72-4.4l4.02-1.34 6.65-1.8 9.25-1.95.8-.12m10.57-1.62l1.25-.2 16.33-1.6 3.72-.15m10.7-.44l5.02-.22 5.66-.04 10.7.3m10.68.36l15.95 1.32 5.34.74m10.58 1.6l7.83 1.52 7.28 1.85 5.22 1.63.4.15m9.72 4.42l.07.04 1.23.8.96.72.77.64.62.58.5.53.43.5.34.44.3.42.23.4.2.37.16.36.14.33.1.33.1.32.07.3.06.32.03.3v10.18m0 9.78v19.55m0 9.8v19.54m0 9.78v19.56m0 9.78v19.55m0 9.8v19.54m0 9.78v10.08l-.03.3-.05.32-.06.3-.08.33-.1.33-.13.34-.16.35-.2.37-.22.4-.28.4-.32.44-.4.47-.48.52-.58.56-.73.62-.92.7-1.14.78-.44.26" stroke="#000" stroke-width="2" fill="none"/><path d="M-721 522c0 12.15-40.3 22-90 22s-90-9.85-90-22" fill="none"/><path d="M-721 522v.3l-.03.3-.05.32-.06.3-.08.33-.1.33-.13.34-.16.35-.2.37-.22.4-.28.4-.32.44-.4.47-.48.52-.58.56-.73.62-.92.7-1.14.78-.44.26m-9.72 4.4l-4.02 1.34-6.65 1.8-9.25 1.95-.8.12m-10.57 1.62l-1.25.2-16.33 1.6-3.72.15m-10.7.44l-5.02.22-5.66.04-10.7-.3m-10.68-.36l-15.95-1.32-5.34-.74m-10.58-1.6l-7.83-1.52-7.28-1.85-5.22-1.63-.4-.15m-9.72-4.42l-.07-.04-1.23-.8-.96-.72-.77-.64-.62-.58-.5-.53-.43-.5-.34-.44-.3-.42-.23-.4-.2-.37-.16-.36-.14-.33-.1-.33-.1-.32-.07-.3-.06-.32-.03-.3v-.4" stroke="#000" stroke-width="2" fill="none"/><use xlink:href="#j" transform="matrix(1,0,0,1,-896,549.0000000000001) translate(64.505 165.0036992)"/><path d="M-1102.75 631.85H-1178v-2h75.25zm179.75 0h-31.95v-2H-923z" fill="#834187"/><path d="M-1177.97 631.85h-1.03v-2h1.03zM-922 631.85h-1.03v-2h1.03z" fill="#834187"/><use xlink:href="#q" transform="matrix(1,0,0,1,-1102.753372798965,620.0543051122662) translate(0.0049999999999954525 14.4)"/><use xlink:href="#r" transform="matrix(1,0,0,1,-1102.753372798965,620.0543051122662) translate(119.855 14.4)"/><path d="M-874.43 506.37V713.6" stroke="#834187" stroke-width="2" fill="none"/><path d="M-873.43 506.4h-2v-.77l.88-.24 1.12-.24zM-873.43 714.85l-2-.5v-.78h2z" fill="#834187"/><path d="M-841 501.34v217.3" stroke="#834187" stroke-width="2" fill="none"/><path d="M-840 501.37h-2v-.93l2-.2zM-840 719.72l-2-.17v-.94h2z" fill="#834187"/><path d="M-811 500v220" stroke="#834187" stroke-width="2" fill="none"/><path d="M-810 499.03v1h-2V499h1zM-810 721h-1l-1-.03v-1h2z" fill="#834187"/><path d="M-748.2 506.25v207.5" stroke="#834187" stroke-width="2" fill="none"/><path d="M-747.2 505.5v.78h-2V505zM-747.2 714.54l-.25.07-1.74.38v-1.24h2z" fill="#834187"/><path d="M-779.44 501.5v217" stroke="#834187" stroke-width="2" fill="none"/><path d="M-778.44 500.58v.94h-2v-1.1zM-778.44 719.4l-2 .2v-1.12h2z" fill="#834187"/><path d="M-521 698c0 12.15-40.3 22-90 22s-90-9.85-90-22V522c0-12.15 40.3-22 90-22s90 9.85 90 22z" fill="#fff"/><path d="M-537.02 710.5l-4.02 1.34-6.65 1.8-9.25 1.95-.8.12m-10.57 1.62l-1.25.2-16.33 1.6-3.72.15m-10.7.44l-5.02.22-5.66.04-10.7-.3m-10.68-.36l-15.95-1.32-5.34-.74m-10.58-1.6l-7.83-1.52-7.28-1.85-5.22-1.63-.4-.15m-9.72-4.42l-.07-.04-1.23-.8-.96-.72-.77-.64-.62-.58-.5-.53-.43-.5-.34-.44-.3-.42-.23-.4-.2-.37-.16-.36-.14-.33-.1-.33-.1-.32-.07-.3-.06-.32-.03-.3V688.2m0-9.78V658.9m0-9.8v-19.54m0-9.78v-19.56m0-9.78V570.9m0-9.8v-19.54m0-9.78V521.7l.03-.3.05-.32.06-.3.08-.33.1-.33.13-.34.16-.35.2-.37.22-.4.28-.4.32-.44.4-.47.48-.52.58-.56.73-.62.92-.7 1.14-.78.44-.26m9.72-4.4l4.02-1.34 6.65-1.8 9.25-1.95.8-.12m10.57-1.62l1.25-.2 16.33-1.6 3.72-.15m10.7-.44l5.02-.22 5.66-.04 10.7.3m10.68.36l15.95 1.32 5.34.74m10.58 1.6l7.83 1.52 7.28 1.85 5.22 1.63.4.15m9.72 4.42l.07.04 1.23.8.96.72.77.64.62.58.5.53.43.5.34.44.3.42.23.4.2.37.16.36.14.33.1.33.1.32.07.3.06.32.03.3v10.18m0 9.78v19.55m0 9.8v19.54m0 9.78v19.56m0 9.78v19.55m0 9.8v19.54m0 9.78v10.08l-.03.3-.05.32-.06.3-.08.33-.1.33-.13.34-.16.35-.2.37-.22.4-.28.4-.32.44-.4.47-.48.52-.58.56-.73.62-.92.7-1.14.78-.44.26" stroke="#000" stroke-width="2" fill="none"/><path d="M-521 522c0 12.15-40.3 22-90 22s-90-9.85-90-22" fill="none"/><path d="M-521 522v.3l-.03.3-.05.32-.06.3-.08.33-.1.33-.13.34-.16.35-.2.37-.22.4-.28.4-.32.44-.4.47-.48.52-.58.56-.73.62-.92.7-1.14.78-.44.26m-9.72 4.4l-4.02 1.34-6.65 1.8-9.25 1.95-.8.12m-10.57 1.62l-1.25.2-16.33 1.6-3.72.15m-10.7.44l-5.02.22-5.66.04-10.7-.3m-10.68-.36l-15.95-1.32-5.34-.74m-10.58-1.6l-7.83-1.52-7.28-1.85-5.22-1.63-.4-.15m-9.72-4.42l-.07-.04-1.23-.8-.96-.72-.77-.64-.62-.58-.5-.53-.43-.5-.34-.44-.3-.42-.23-.4-.2-.37-.16-.36-.14-.33-.1-.33-.1-.32-.07-.3-.06-.32-.03-.3v-.4" stroke="#000" stroke-width="2" fill="none"/><use xlink:href="#j" transform="matrix(1,0,0,1,-696,549) translate(64.505 165.0036992)"/><path d="M-674.43 506.37V713.6" stroke="#834187" stroke-width="2" fill="none"/><path d="M-673.43 506.4h-2v-.77l.88-.24 1.12-.24zM-673.43 714.85l-2-.5v-.78h2z" fill="#834187"/><path d="M-641 501.34v217.3" stroke="#834187" stroke-width="2" fill="none"/><path d="M-640 501.37h-2v-.93l2-.2zM-640 719.72l-2-.17v-.94h2z" fill="#834187"/><path d="M-611 500v220" stroke="#834187" stroke-width="2" fill="none"/><path d="M-610 499.03v1h-2V499h1zM-610 721h-1l-1-.03v-1h2z" fill="#834187"/><path d="M-548.2 506.25v207.5" stroke="#834187" stroke-width="2" fill="none"/><path d="M-547.2 505.5v.78h-2V505zM-547.2 714.54l-.25.07-1.74.38v-1.24h2z" fill="#834187"/><path d="M-579.44 501.5v217" stroke="#834187" stroke-width="2" fill="none"/><path d="M-578.44 500.58v.94h-2v-1.1zM-578.44 719.4l-2 .2v-1.12h2z" fill="#834187"/><path d="M-321 698c0 12.15-40.3 22-90 22s-90-9.85-90-22V522c0-12.15 40.3-22 90-22s90 9.85 90 22z" fill="#fff"/><path d="M-337.02 710.5l-4.02 1.34-6.65 1.8-9.25 1.95-.8.12m-10.57 1.62l-1.25.2-16.33 1.6-3.72.15m-10.7.44l-5.02.22-5.66.04-10.7-.3m-10.68-.36l-15.95-1.32-5.34-.74m-10.58-1.6l-7.83-1.52-7.28-1.85-5.22-1.63-.4-.15m-9.72-4.42l-.07-.04-1.23-.8-.96-.72-.77-.64-.62-.58-.5-.53-.43-.5-.34-.44-.3-.42-.23-.4-.2-.37-.16-.36-.14-.33-.1-.33-.1-.32-.07-.3-.06-.32-.03-.3V688.2m0-9.78V658.9m0-9.8v-19.54m0-9.78v-19.56m0-9.78V570.9m0-9.8v-19.54m0-9.78V521.7l.03-.3.05-.32.06-.3.08-.33.1-.33.13-.34.16-.35.2-.37.22-.4.28-.4.32-.44.4-.47.48-.52.58-.56.73-.62.92-.7 1.14-.78.44-.26m9.72-4.4l4.02-1.34 6.65-1.8 9.25-1.95.8-.12m10.57-1.62l1.25-.2 16.33-1.6 3.72-.15m10.7-.44l5.02-.22 5.66-.04 10.7.3m10.68.36l15.95 1.32 5.34.74m10.58 1.6l7.83 1.52 7.28 1.85 5.22 1.63.4.15m9.72 4.42l.07.04 1.23.8.96.72.77.64.62.58.5.53.43.5.34.44.3.42.23.4.2.37.16.36.14.33.1.33.1.32.07.3.06.32.03.3v10.18m0 9.78v19.55m0 9.8v19.54m0 9.78v19.56m0 9.78v19.55m0 9.8v19.54m0 9.78v10.08l-.03.3-.05.32-.06.3-.08.33-.1.33-.13.34-.16.35-.2.37-.22.4-.28.4-.32.44-.4.47-.48.52-.58.56-.73.62-.92.7-1.14.78-.44.26" stroke="#000" stroke-width="2" fill="none"/><path d="M-321 522c0 12.15-40.3 22-90 22s-90-9.85-90-22" fill="none"/><path d="M-321 522v.3l-.03.3-.05.32-.06.3-.08.33-.1.33-.13.34-.16.35-.2.37-.22.4-.28.4-.32.44-.4.47-.48.52-.58.56-.73.62-.92.7-1.14.78-.44.26m-9.72 4.4l-4.02 1.34-6.65 1.8-9.25 1.95-.8.12m-10.57 1.62l-1.25.2-16.33 1.6-3.72.15m-10.7.44l-5.02.22-5.66.04-10.7-.3m-10.68-.36l-15.95-1.32-5.34-.74m-10.58-1.6l-7.83-1.52-7.28-1.85-5.22-1.63-.4-.15m-9.72-4.42l-.07-.04-1.23-.8-.96-.72-.77-.64-.62-.58-.5-.53-.43-.5-.34-.44-.3-.42-.23-.4-.2-.37-.16-.36-.14-.33-.1-.33-.1-.32-.07-.3-.06-.32-.03-.3v-.4" stroke="#000" stroke-width="2" fill="none"/><use xlink:href="#j" transform="matrix(1,0,0,1,-496,548.9999999999999) translate(64.505 165.0036992)"/><path d="M-474.43 506.37V713.6" stroke="#834187" stroke-width="2" fill="none"/><path d="M-473.43 506.4h-2v-.77l.88-.24 1.12-.24zM-473.43 714.85l-2-.5v-.78h2z" fill="#834187"/><path d="M-441 501.34v217.3" stroke="#834187" stroke-width="2" fill="none"/><path d="M-440 501.37h-2v-.93l2-.2zM-440 719.72l-2-.17v-.94h2z" fill="#834187"/><path d="M-411 500v220" stroke="#834187" stroke-width="2" fill="none"/><path d="M-410 499.03v1h-2V499h1zM-410 721h-1l-1-.03v-1h2z" fill="#834187"/><path d="M-348.2 506.25v207.5" stroke="#834187" stroke-width="2" fill="none"/><path d="M-347.2 505.5v.78h-2V505zM-347.2 714.54l-.25.07-1.74.38v-1.24h2z" fill="#834187"/><path d="M-379.44 501.5v217" stroke="#834187" stroke-width="2" fill="none"/><path d="M-378.44 500.58v.94h-2v-1.1zM-378.44 719.4l-2 .2v-1.12h2z" fill="#834187"/><path d="M-1400 20h160v280h-160z" fill-opacity="0"/><path d="M-1378.67 20h21.34m10.66 0h21.34m10.66 0h21.34m10.66 0h21.34m10.66 0h10.67v10.37m0 10.37v20.74m0 10.37V92.6m0 10.36v20.74m0 10.37v20.74m0 10.4v20.73m0 10.37v20.74m0 10.37v20.75m0 10.37v20.74m0 10.37V300h-10.67m-10.66 0h-21.34m-10.66 0h-21.34m-10.66 0h-21.34m-10.66 0h-21.34m-10.66 0H-1400v-10.37m0-10.37v-20.74m0-10.37V227.4m0-10.36V196.3m0-10.37V165.2m0-10.4v-20.73m0-10.37v-20.74m0-10.37V71.84m0-10.37V40.74m0-10.37V20h10.67" stroke="#000" stroke-width="2" fill="none"/><use xlink:href="#s" transform="matrix(1,0,0,1,-1395,25) translate(42.525 267.755904)"/><use xlink:href="#t" transform="matrix(1,0,0,1,-1395,25) translate(97.475 267.755904)"/><path d="M-1392.38 44.75h144.76v40h-144.76z" stroke="#000" stroke-width="2" fill="#fff"/><use xlink:href="#u" transform="matrix(1,0,0,1,-1387.3809523809523,49.75000000000004) translate(5.799999999999997 18.15)"/><use xlink:href="#v" transform="matrix(1,0,0,1,-1387.3809523809523,49.75000000000004) translate(71.7 18.15)"/><path d="M-1392.38 100h144.76v40h-144.76z" stroke="#000" stroke-width="2" fill="#fff"/><use xlink:href="#u" transform="matrix(1,0,0,1,-1387.3809523809523,105) translate(5.799999999999997 18.15)"/><use xlink:href="#v" transform="matrix(1,0,0,1,-1387.3809523809523,105) translate(71.7 18.15)"/><path d="M-1392.38 155.25h144.76v40h-144.76z" stroke="#000" stroke-width="2" fill="#fff"/><use xlink:href="#u" transform="matrix(1,0,0,1,-1387.3809523809523,160.24999999999994) translate(5.799999999999997 18.15)"/><use xlink:href="#v" transform="matrix(1,0,0,1,-1387.3809523809523,160.24999999999994) translate(71.7 18.15)"/><path d="M-1392.38 210.5h144.76v40h-144.76z" stroke="#000" stroke-width="2" fill="#fff"/><use xlink:href="#u" transform="matrix(1,0,0,1,-1387.3809523809523,215.4999999999999) translate(5.799999999999997 18.15)"/><use xlink:href="#v" transform="matrix(1,0,0,1,-1387.3809523809523,215.4999999999999) translate(71.7 18.15)"/><path d="M-1200 20h160v280h-160z" fill-opacity="0"/><path d="M-1178.67 20h21.34m10.66 0h21.34m10.66 0h21.34m10.66 0h21.34m10.66 0h10.67v10.37m0 10.37v20.74m0 10.37V92.6m0 10.36v20.74m0 10.37v20.74m0 10.4v20.73m0 10.37v20.74m0 10.37v20.75m0 10.37v20.74m0 10.37V300h-10.67m-10.66 0h-21.34m-10.66 0h-21.34m-10.66 0h-21.34m-10.66 0h-21.34m-10.66 0H-1200v-10.37m0-10.37v-20.74m0-10.37V227.4m0-10.36V196.3m0-10.37V165.2m0-10.4v-20.73m0-10.37v-20.74m0-10.37V71.84m0-10.37V40.74m0-10.37V20h10.67" stroke="#000" stroke-width="2" fill="none"/><use xlink:href="#s" transform="matrix(1,0,0,1,-1195,25) translate(42.525 267.755904)"/><use xlink:href="#w" transform="matrix(1,0,0,1,-1195,25) translate(97.475 267.755904)"/><path d="M-1192.38 44.75h144.76v40h-144.76z" stroke="#000" stroke-width="2" fill="#fff"/><use xlink:href="#u" transform="matrix(1,0,0,1,-1187.3809523809523,49.75000000000004) translate(5.799999999999997 18.15)"/><use xlink:href="#v" transform="matrix(1,0,0,1,-1187.3809523809523,49.75000000000004) translate(71.7 18.15)"/><path d="M-1192.38 100h144.76v40h-144.76z" stroke="#000" stroke-width="2" fill="#fff"/><use xlink:href="#u" transform="matrix(1,0,0,1,-1187.3809523809523,104.99999999999999) translate(5.799999999999997 18.15)"/><use xlink:href="#v" transform="matrix(1,0,0,1,-1187.3809523809523,104.99999999999999) translate(71.7 18.15)"/><path d="M-1192.38 155.25h144.76v40h-144.76z" stroke="#000" stroke-width="2" fill="#fff"/><use xlink:href="#u" transform="matrix(1,0,0,1,-1187.3809523809523,160.24999999999994) translate(5.799999999999997 18.15)"/><use xlink:href="#v" transform="matrix(1,0,0,1,-1187.3809523809523,160.24999999999994) translate(71.7 18.15)"/><path d="M-1192.38 210.5h144.76v40h-144.76z" stroke="#000" stroke-width="2" fill="#fff"/><use xlink:href="#u" transform="matrix(1,0,0,1,-1187.3809523809523,215.4999999999999) translate(5.799999999999997 18.15)"/><use xlink:href="#v" transform="matrix(1,0,0,1,-1187.3809523809523,215.4999999999999) translate(71.7 18.15)"/><path d="M-1000 20h160v280h-160z" fill-opacity="0"/><path d="M-978.67 20h21.34m10.66 0h21.34m10.66 0h21.34m10.66 0h21.34m10.66 0H-840v10.37m0 10.37v20.74m0 10.37V92.6m0 10.36v20.74m0 10.37v20.74m0 10.4v20.73m0 10.37v20.74m0 10.37v20.75m0 10.37v20.74m0 10.37V300h-10.67m-10.66 0h-21.34m-10.66 0h-21.34m-10.66 0h-21.34m-10.66 0h-21.34m-10.66 0H-1000v-10.37m0-10.37v-20.74m0-10.37V227.4m0-10.36V196.3m0-10.37V165.2m0-10.4v-20.73m0-10.37v-20.74m0-10.37V71.84m0-10.37V40.74m0-10.37V20h10.67" stroke="#000" stroke-width="2" fill="none"/><use xlink:href="#s" transform="matrix(1,0,0,1,-995,25) translate(42.525 267.755904)"/><use xlink:href="#x" transform="matrix(1,0,0,1,-995,25) translate(97.475 267.755904)"/><path d="M-992.38 44.75h144.76v40h-144.76z" stroke="#000" stroke-width="2" fill="#fff"/><use xlink:href="#u" transform="matrix(1,0,0,1,-987.3809523809524,49.75000000000004) translate(5.799999999999997 18.15)"/><use xlink:href="#v" transform="matrix(1,0,0,1,-987.3809523809524,49.75000000000004) translate(71.7 18.15)"/><path d="M-992.38 100h144.76v40h-144.76z" stroke="#000" stroke-width="2" fill="#fff"/><use xlink:href="#u" transform="matrix(1,0,0,1,-987.3809523809524,104.99999999999999) translate(5.799999999999997 18.15)"/><use xlink:href="#v" transform="matrix(1,0,0,1,-987.3809523809524,104.99999999999999) translate(71.7 18.15)"/><path d="M-992.38 155.25h144.76v40h-144.76z" stroke="#000" stroke-width="2" fill="#fff"/><use xlink:href="#u" transform="matrix(1,0,0,1,-987.3809523809524,160.24999999999994) translate(5.799999999999997 18.15)"/><use xlink:href="#v" transform="matrix(1,0,0,1,-987.3809523809524,160.24999999999994) translate(71.7 18.15)"/><path d="M-992.38 210.5h144.76v40h-144.76z" stroke="#000" stroke-width="2" fill="#fff"/><use xlink:href="#u" transform="matrix(1,0,0,1,-987.3809523809524,215.4999999999999) translate(5.799999999999997 18.15)"/><use xlink:href="#v" transform="matrix(1,0,0,1,-987.3809523809524,215.4999999999999) translate(71.7 18.15)"/><path d="M-800 20h160v280h-160z" fill-opacity="0"/><path d="M-778.67 20h21.34m10.66 0h21.34m10.66 0h21.34m10.66 0h21.34m10.66 0H-640v10.37m0 10.37v20.74m0 10.37V92.6m0 10.36v20.74m0 10.37v20.74m0 10.4v20.73m0 10.37v20.74m0 10.37v20.75m0 10.37v20.74m0 10.37V300h-10.67m-10.66 0h-21.34m-10.66 0h-21.34m-10.66 0h-21.34m-10.66 0h-21.34m-10.66 0H-800v-10.37m0-10.37v-20.74m0-10.37V227.4m0-10.36V196.3m0-10.37V165.2m0-10.4v-20.73m0-10.37v-20.74m0-10.37V71.84m0-10.37V40.74m0-10.37V20h10.67" stroke="#000" stroke-width="2" fill="none"/><use xlink:href="#s" transform="matrix(1,0,0,1,-795.0000000000001,25) translate(42.525 267.755904)"/><use xlink:href="#y" transform="matrix(1,0,0,1,-795.0000000000001,25) translate(97.475 267.755904)"/><path d="M-792.38 44.75h144.76v40h-144.76z" stroke="#000" stroke-width="2" fill="#fff"/><use xlink:href="#u" transform="matrix(1,0,0,1,-787.3809523809525,49.75000000000004) translate(5.799999999999997 18.15)"/><use xlink:href="#v" transform="matrix(1,0,0,1,-787.3809523809525,49.75000000000004) translate(71.7 18.15)"/><path d="M-792.38 100h144.76v40h-144.76z" stroke="#000" stroke-width="2" fill="#fff"/><use xlink:href="#u" transform="matrix(1,0,0,1,-787.3809523809525,104.99999999999999) translate(5.799999999999997 18.15)"/><use xlink:href="#v" transform="matrix(1,0,0,1,-787.3809523809525,104.99999999999999) translate(71.7 18.15)"/><path d="M-792.38 155.25h144.76v40h-144.76z" stroke="#000" stroke-width="2" fill="#fff"/><use xlink:href="#u" transform="matrix(1,0,0,1,-787.3809523809525,160.24999999999994) translate(5.799999999999997 18.15)"/><use xlink:href="#v" transform="matrix(1,0,0,1,-787.3809523809525,160.24999999999994) translate(71.7 18.15)"/><path d="M-792.38 210.5h144.76v40h-144.76z" stroke="#000" stroke-width="2" fill="#fff"/><use xlink:href="#u" transform="matrix(1,0,0,1,-787.3809523809525,215.4999999999999) translate(5.799999999999997 18.15)"/><use xlink:href="#v" transform="matrix(1,0,0,1,-787.3809523809525,215.4999999999999) translate(71.7 18.15)"/><path d="M-600 20h160v280h-160z" fill-opacity="0"/><path d="M-578.67 20h21.34m10.66 0h21.34m10.66 0h21.34m10.66 0h21.34m10.66 0H-440v10.37m0 10.37v20.74m0 10.37V92.6m0 10.36v20.74m0 10.37v20.74m0 10.4v20.73m0 10.37v20.74m0 10.37v20.75m0 10.37v20.74m0 10.37V300h-10.67m-10.66 0h-21.34m-10.66 0h-21.34m-10.66 0h-21.34m-10.66 0h-21.34m-10.66 0H-600v-10.37m0-10.37v-20.74m0-10.37V227.4m0-10.36V196.3m0-10.37V165.2m0-10.4v-20.73m0-10.37v-20.74m0-10.37V71.84m0-10.37V40.74m0-10.37V20h10.67" stroke="#000" stroke-width="2" fill="none"/><use xlink:href="#s" transform="matrix(1,0,0,1,-595,25) translate(42.525 267.755904)"/><use xlink:href="#z" transform="matrix(1,0,0,1,-595,25) translate(97.475 267.755904)"/><path d="M-592.38 44.75h144.76v40h-144.76z" stroke="#000" stroke-width="2" fill="#fff"/><use xlink:href="#u" transform="matrix(1,0,0,1,-587.3809523809524,49.75000000000004) translate(5.799999999999997 18.15)"/><use xlink:href="#v" transform="matrix(1,0,0,1,-587.3809523809524,49.75000000000004) translate(71.7 18.15)"/><path d="M-592.38 100h144.76v40h-144.76z" stroke="#000" stroke-width="2" fill="#fff"/><use xlink:href="#u" transform="matrix(1,0,0,1,-587.3809523809524,104.99999999999999) translate(5.799999999999997 18.15)"/><use xlink:href="#v" transform="matrix(1,0,0,1,-587.3809523809524,104.99999999999999) translate(71.7 18.15)"/><path d="M-592.38 155.25h144.76v40h-144.76z" stroke="#000" stroke-width="2" fill="#fff"/><use xlink:href="#u" transform="matrix(1,0,0,1,-587.3809523809524,160.24999999999994) translate(5.799999999999997 18.15)"/><use xlink:href="#v" transform="matrix(1,0,0,1,-587.3809523809524,160.24999999999994) translate(71.7 18.15)"/><path d="M-592.38 210.5h144.76v40h-144.76z" stroke="#000" stroke-width="2" fill="#fff"/><use xlink:href="#u" transform="matrix(1,0,0,1,-587.3809523809524,215.4999999999999) translate(5.799999999999997 18.15)"/><use xlink:href="#v" transform="matrix(1,0,0,1,-587.3809523809524,215.4999999999999) translate(71.7 18.15)"/><path d="M-400 20h160v280h-160z" fill-opacity="0"/><path d="M-378.67 20h21.34m10.66 0h21.34m10.66 0h21.34m10.66 0h21.34m10.66 0H-240v10.37m0 10.37v20.74m0 10.37V92.6m0 10.36v20.74m0 10.37v20.74m0 10.4v20.73m0 10.37v20.74m0 10.37v20.75m0 10.37v20.74m0 10.37V300h-10.67m-10.66 0h-21.34m-10.66 0h-21.34m-10.66 0h-21.34m-10.66 0h-21.34m-10.66 0H-400v-10.37m0-10.37v-20.74m0-10.37V227.4m0-10.36V196.3m0-10.37V165.2m0-10.4v-20.73m0-10.37v-20.74m0-10.37V71.84m0-10.37V40.74m0-10.37V20h10.67" stroke="#000" stroke-width="2" fill="none"/><use xlink:href="#s" transform="matrix(1,0,0,1,-395,25) translate(42.525 267.755904)"/><use xlink:href="#A" transform="matrix(1,0,0,1,-395,25) translate(97.475 267.755904)"/><path d="M-392.38 44.75h144.76v40h-144.76z" stroke="#000" stroke-width="2" fill="#fff"/><use xlink:href="#u" transform="matrix(1,0,0,1,-387.3809523809524,49.75000000000004) translate(5.799999999999997 18.15)"/><use xlink:href="#v" transform="matrix(1,0,0,1,-387.3809523809524,49.75000000000004) translate(71.7 18.15)"/><path d="M-392.38 100h144.76v40h-144.76z" stroke="#000" stroke-width="2" fill="#fff"/><use xlink:href="#u" transform="matrix(1,0,0,1,-387.3809523809524,104.99999999999999) translate(5.799999999999997 18.15)"/><use xlink:href="#v" transform="matrix(1,0,0,1,-387.3809523809524,104.99999999999999) translate(71.7 18.15)"/><path d="M-392.38 155.25h144.76v40h-144.76z" stroke="#000" stroke-width="2" fill="#fff"/><use xlink:href="#u" transform="matrix(1,0,0,1,-387.3809523809524,160.24999999999994) translate(5.799999999999997 18.15)"/><use xlink:href="#v" transform="matrix(1,0,0,1,-387.3809523809524,160.24999999999994) translate(71.7 18.15)"/><path d="M-392.38 210.5h144.76v40h-144.76z" stroke="#000" stroke-width="2" fill="#fff"/><use xlink:href="#u" transform="matrix(1,0,0,1,-387.3809523809524,215.4999999999999) translate(5.799999999999997 18.15)"/><use xlink:href="#v" transform="matrix(1,0,0,1,-387.3809523809524,215.4999999999999) translate(71.7 18.15)"/><path d="M-885.8 439v69.1h-2V441h-301.6v-2zm-379.5 0v2h-55.7V302h2v137z" fill="#3276bc"/><path d="M-1319 302.03h-2V301h2zM-885.8 508.7l-.27.1-1.74.68v-1.42h2z" fill="#3276bc"/><use xlink:href="#B" transform="matrix(1,0,0,1,-1265.3015195431478,429.2) translate(0.005000000000002558 14.4)"/><use xlink:href="#C" transform="matrix(1,0,0,1,-1265.3015195431478,429.2) translate(47.955000000000005 14.4)"/><path d="M-657.13 419v82.33h-2V421h-210.32v-2zm-288.22 0v2H-1121V302h2v117z" fill="#de5f85"/><path d="M-1119 302.03h-2V301h2zM-657.13 502.18l-2 .3v-1.18h2z" fill="#de5f85"/><use xlink:href="#D" transform="matrix(1,0,0,1,-945.3494002032894,409.2) translate(0.005000000000002558 14.4)"/><use xlink:href="#r" transform="matrix(1,0,0,1,-945.3494002032894,409.2) translate(47.955000000000005 14.4)"/><path d="M-919 389h95.47v109.38h-2V391H-921v-18.14h2zm0-37.74h-2V302h2z" fill="#c92d39"/><path d="M-919 302.03h-2V301h2zM-823.53 499.33l-2 .1v-1.08h2z" fill="#c92d39"/><use xlink:href="#D" transform="matrix(1,0,0,1,-957.95,351.2613899194933) translate(0.005000000000002558 14.4)"/><use xlink:href="#r" transform="matrix(1,0,0,1,-957.95,351.2613899194933) translate(47.955000000000005 14.4)"/><path d="M-391.25 498.5h-2v-62.37h2zm0-149.5v65.53h-2V351h-161.3v-2zm-239.2 0v2H-721v-49h2v47z" fill="#ef8d22"/><path d="M-719 302.03h-2V301h2zM-391.25 499.54l-2-.06v-1h2z" fill="#ef8d22"/><use xlink:href="#D" transform="matrix(1,0,0,1,-630.4381409066962,339.2) translate(0.005000000000002558 14.4)"/><use xlink:href="#r" transform="matrix(1,0,0,1,-630.4381409066962,339.2) translate(47.955000000000005 14.4)"/><use xlink:href="#D" transform="matrix(1,0,0,1,-430.19712279478927,414.5333333333333) translate(0.005000000000002558 14.4)"/><use xlink:href="#r" transform="matrix(1,0,0,1,-430.19712279478927,414.5333333333333) translate(47.955000000000005 14.4)"/><path d="M-519 451h-44.28v50.27h-2V449H-521v-14.43h2zm0-38.03h-2V302h2z" fill="#7ab648"/><path d="M-519 302.03h-2V301h2zM-563.28 502.4l-2-.27v-.9h2z" fill="#7ab648"/><use xlink:href="#D" transform="matrix(1,0,0,1,-557.95,412.97268873742206) translate(0.005000000000002558 14.4)"/><use xlink:href="#r" transform="matrix(1,0,0,1,-557.95,412.97268873742206) translate(47.955000000000005 14.4)"/><path d="M-697.2 391h-37.47v116.92h-2V389h39.47zm378.2 0h-302.3v-2H-321v-87h2z" fill="#ffbbb1"/><path d="M-319 302.03h-2V301h2zM-734.67 509.3l-2-.76v-.65h2z" fill="#ffbbb1"/><use xlink:href="#D" transform="matrix(1,0,0,1,-697.2024725118156,379.2) translate(0.005000000000002558 14.4)"/><use xlink:href="#r" transform="matrix(1,0,0,1,-697.2024725118156,379.2) translate(47.955000000000005 14.4)"/><path d="M-901 560h27.62v100H-901z" stroke="#000" stroke-opacity="0" stroke-width="2" fill="#fff" fill-opacity="0"/><use xlink:href="#E" transform="matrix(-1.8369701987210297e-16,-1,1,-1.8369701987210297e-16,-895.9999999999997,655) translate(10.5 14.4)"/><use xlink:href="#t" transform="matrix(-1.8369701987210297e-16,-1,1,-1.8369701987210297e-16,-895.9999999999997,655) translate(69.5 14.4)"/><path d="M-873.38 560h27.62v100h-27.62z" stroke="#000" stroke-opacity="0" stroke-width="2" fill="#fff" fill-opacity="0"/><use xlink:href="#E" transform="matrix(-1.8369701987210297e-16,-1,1,-1.8369701987210297e-16,-868.3809523809472,655) translate(10.5 14.4)"/><use xlink:href="#w" transform="matrix(-1.8369701987210297e-16,-1,1,-1.8369701987210297e-16,-868.3809523809472,655) translate(69.5 14.4)"/><path d="M-840 560h27.62v100H-840z" stroke="#000" stroke-opacity="0" stroke-width="2" fill="#fff" fill-opacity="0"/><use xlink:href="#E" transform="matrix(-1.8369701987210297e-16,-1,1,-1.8369701987210297e-16,-834.9999999999998,655) translate(10.5 14.4)"/><use xlink:href="#x" transform="matrix(-1.8369701987210297e-16,-1,1,-1.8369701987210297e-16,-834.9999999999998,655) translate(69.5 14.4)"/><path d="M-812.38 560h27.62v100h-27.62z" stroke="#000" stroke-opacity="0" stroke-width="2" fill="#fff" fill-opacity="0"/><use xlink:href="#E" transform="matrix(-1.8369701987210297e-16,-1,1,-1.8369701987210297e-16,-807.3809523809472,655) translate(10.5 14.4)"/><use xlink:href="#y" transform="matrix(-1.8369701987210297e-16,-1,1,-1.8369701987210297e-16,-807.3809523809472,655) translate(69.5 14.4)"/><path d="M-779 560h27.62v100H-779z" stroke="#000" stroke-opacity="0" stroke-width="2" fill="#fff" fill-opacity="0"/><use xlink:href="#E" transform="matrix(-1.8369701987210297e-16,-1,1,-1.8369701987210297e-16,-774,654.9999999999998) translate(10.5 14.4)"/><use xlink:href="#z" transform="matrix(-1.8369701987210297e-16,-1,1,-1.8369701987210297e-16,-774,654.9999999999998) translate(69.5 14.4)"/><path d="M-748.62 560H-721v100h-27.62z" stroke="#000" stroke-opacity="0" stroke-width="2" fill="#fff" fill-opacity="0"/><use xlink:href="#E" transform="matrix(-1.8369701987210297e-16,-1,1,-1.8369701987210297e-16,-743.619047619053,655) translate(10.5 14.4)"/><use xlink:href="#A" transform="matrix(-1.8369701987210297e-16,-1,1,-1.8369701987210297e-16,-743.619047619053,655) translate(69.5 14.4)"/><path d="M-701 560h27.62v100H-701z" stroke="#000" stroke-opacity="0" stroke-width="2" fill="#fff" fill-opacity="0"/><use xlink:href="#E" transform="matrix(-1.8369701987210297e-16,-1,1,-1.8369701987210297e-16,-695.9999999999995,655.0000000000002) translate(10.5 14.4)"/><use xlink:href="#t" transform="matrix(-1.8369701987210297e-16,-1,1,-1.8369701987210297e-16,-695.9999999999995,655.0000000000002) translate(69.5 14.4)"/><path d="M-673.38 560h27.62v100h-27.62z" stroke="#000" stroke-opacity="0" stroke-width="2" fill="#fff" fill-opacity="0"/><use xlink:href="#E" transform="matrix(-1.8369701987210297e-16,-1,1,-1.8369701987210297e-16,-668.3809523809468,655.0000000000002) translate(10.5 14.4)"/><use xlink:href="#w" transform="matrix(-1.8369701987210297e-16,-1,1,-1.8369701987210297e-16,-668.3809523809468,655.0000000000002) translate(69.5 14.4)"/><path d="M-640 560h27.62v100H-640z" stroke="#000" stroke-opacity="0" stroke-width="2" fill="#fff" fill-opacity="0"/><use xlink:href="#E" transform="matrix(-1.8369701987210297e-16,-1,1,-1.8369701987210297e-16,-634.9999999999995,655.0000000000002) translate(10.5 14.4)"/><use xlink:href="#x" transform="matrix(-1.8369701987210297e-16,-1,1,-1.8369701987210297e-16,-634.9999999999995,655.0000000000002) translate(69.5 14.4)"/><path d="M-612.38 560h27.62v100h-27.62z" stroke="#000" stroke-opacity="0" stroke-width="2" fill="#fff" fill-opacity="0"/><use xlink:href="#E" transform="matrix(-1.8369701987210297e-16,-1,1,-1.8369701987210297e-16,-607.3809523809468,655.0000000000002) translate(10.5 14.4)"/><use xlink:href="#y" transform="matrix(-1.8369701987210297e-16,-1,1,-1.8369701987210297e-16,-607.3809523809468,655.0000000000002) translate(69.5 14.4)"/><path d="M-579 560h27.62v100H-579z" stroke="#000" stroke-opacity="0" stroke-width="2" fill="#fff" fill-opacity="0"/><use xlink:href="#E" transform="matrix(-1.8369701987210297e-16,-1,1,-1.8369701987210297e-16,-573.9999999999998,655) translate(10.5 14.4)"/><use xlink:href="#z" transform="matrix(-1.8369701987210297e-16,-1,1,-1.8369701987210297e-16,-573.9999999999998,655) translate(69.5 14.4)"/><path d="M-548.62 560H-521v100h-27.62z" stroke="#000" stroke-opacity="0" stroke-width="2" fill="#fff" fill-opacity="0"/><use xlink:href="#E" transform="matrix(-1.8369701987210297e-16,-1,1,-1.8369701987210297e-16,-543.6190476190527,655.0000000000002) translate(10.5 14.4)"/><use xlink:href="#A" transform="matrix(-1.8369701987210297e-16,-1,1,-1.8369701987210297e-16,-543.6190476190527,655.0000000000002) translate(69.5 14.4)"/><path d="M-501 560h27.62v100H-501z" stroke="#000" stroke-opacity="0" stroke-width="2" fill="#fff" fill-opacity="0"/><use xlink:href="#E" transform="matrix(-1.8369701987210297e-16,-1,1,-1.8369701987210297e-16,-496,654.9999999999999) translate(10.5 14.4)"/><use xlink:href="#t" transform="matrix(-1.8369701987210297e-16,-1,1,-1.8369701987210297e-16,-496,654.9999999999999) translate(69.5 14.4)"/><path d="M-473.38 560h27.62v100h-27.62z" stroke="#000" stroke-opacity="0" stroke-width="2" fill="#fff" fill-opacity="0"/><use xlink:href="#E" transform="matrix(-1.8369701987210297e-16,-1,1,-1.8369701987210297e-16,-468.38095238094684,654.9999999999999) translate(10.5 14.4)"/><use xlink:href="#w" transform="matrix(-1.8369701987210297e-16,-1,1,-1.8369701987210297e-16,-468.38095238094684,654.9999999999999) translate(69.5 14.4)"/><path d="M-440 560h27.62v100H-440z" stroke="#000" stroke-opacity="0" stroke-width="2" fill="#fff" fill-opacity="0"/><use xlink:href="#E" transform="matrix(-1.8369701987210297e-16,-1,1,-1.8369701987210297e-16,-434.9999999999998,654.9999999999999) translate(10.5 14.4)"/><use xlink:href="#x" transform="matrix(-1.8369701987210297e-16,-1,1,-1.8369701987210297e-16,-434.9999999999998,654.9999999999999) translate(69.5 14.4)"/><path d="M-412.38 560h27.62v100h-27.62z" stroke="#000" stroke-opacity="0" stroke-width="2" fill="#fff" fill-opacity="0"/><use xlink:href="#E" transform="matrix(-1.8369701987210297e-16,-1,1,-1.8369701987210297e-16,-407.38095238094684,654.9999999999999) translate(10.5 14.4)"/><use xlink:href="#y" transform="matrix(-1.8369701987210297e-16,-1,1,-1.8369701987210297e-16,-407.38095238094684,654.9999999999999) translate(69.5 14.4)"/><path d="M-379 560h27.62v100H-379z" stroke="#000" stroke-opacity="0" stroke-width="2" fill="#fff" fill-opacity="0"/><g><use xlink:href="#E" transform="matrix(-1.8369701987210297e-16,-1,1,-1.8369701987210297e-16,-373.9999999999998,654.9999999999997) translate(10.5 14.4)"/><use xlink:href="#z" transform="matrix(-1.8369701987210297e-16,-1,1,-1.8369701987210297e-16,-373.9999999999998,654.9999999999997) translate(69.5 14.4)"/></g><path d="M-348.62 560H-321v100h-27.62z" stroke="#000" stroke-opacity="0" stroke-width="2" fill="#fff" fill-opacity="0"/><g><use xlink:href="#E" transform="matrix(-1.8369701987210297e-16,-1,1,-1.8369701987210297e-16,-343.61904761905294,654.9999999999999) translate(10.5 14.4)"/><use xlink:href="#A" transform="matrix(-1.8369701987210297e-16,-1,1,-1.8369701987210297e-16,-343.61904761905294,654.9999999999999) translate(69.5 14.4)"/></g><path d="M-943 769v144.75h20v2h-22V771h-35.53v-2zm-154.28 0v2H-1161V649.43h-17v-2h19V769z" fill="#834187"/><path d="M-922 915.75h-1.03v-2h1.03zM-1177.97 649.43h-1.03v-2h1.03z" fill="#834187"/><g><use xlink:href="#F" transform="matrix(1,0,0,1,-1097.284363097418,759.2) translate(0.005000000000002558 14.4)"/></g><path d="M-1560 620h380v40h-380z" stroke="#000" stroke-width="2" fill="#fff"/><g><use xlink:href="#G" transform="matrix(1,0,0,1,-1555,625) translate(94.125 18.15)"/><use xlink:href="#H" transform="matrix(1,0,0,1,-1555,625) translate(160.025 18.15)"/><use xlink:href="#I" transform="matrix(1,0,0,1,-1555,625) translate(220.97500000000002 18.15)"/></g><path d="M-1779 1199.64h197v2h-199V994.7h2zm38-458.64h-38v232.1h-2V739h40z" fill="#834187"/><path d="M-1740 740l.06 1h-1.1v-2h1.08zM-1581 1201.64h-1.03v-2h1.03z" fill="#834187"/><g><use xlink:href="#G" transform="matrix(1,0,0,1,-1827.45,973.1059832786559) translate(0.005000000000002558 14.4)"/><use xlink:href="#J" transform="matrix(1,0,0,1,-1827.45,973.1059832786559) translate(65.905 14.4)"/></g><path d="M-923 942.3v2h-34.13v-2zm-116.5-16.06h-2v-40.42H-1158v-2h118.5z" fill="#834187"/><path d="M-1157.97 885.82h-1.03v-2h1.03zM-922 944.3h-1.03v-2h1.03z" fill="#834187"/><g><use xlink:href="#K" transform="matrix(1,0,0,1,-1123.875,926.2429833064235) translate(0.0049999999999954525 14.4)"/><use xlink:href="#L" transform="matrix(1,0,0,1,-1123.875,926.2429833064235) translate(59.955 14.4)"/></g><path d="M-1560 660h380v40h-380z" stroke="#000" stroke-width="2" fill="#fff"/><g><use xlink:href="#G" transform="matrix(1,0,0,1,-1555,665) translate(137.55 18.15)"/><use xlink:href="#J" transform="matrix(1,0,0,1,-1555,665) translate(203.45000000000002 18.15)"/></g><path d="M-1560 714.75h380v40h-380z" stroke="#000" stroke-width="2" fill="#fff"/><g><use xlink:href="#G" transform="matrix(1,0,0,1,-1555,719.75) translate(94.125 18.15)"/><use xlink:href="#H" transform="matrix(1,0,0,1,-1555,719.75) translate(160.025 18.15)"/><use xlink:href="#I" transform="matrix(1,0,0,1,-1555,719.75) translate(220.97500000000002 18.15)"/></g><path d="M-1560 754.75h380v40h-380z" stroke="#000" stroke-width="2" fill="#fff"/><g><use xlink:href="#G" transform="matrix(1,0,0,1,-1555,759.75) translate(137.55 18.15)"/><use xlink:href="#J" transform="matrix(1,0,0,1,-1555,759.75) translate(203.45000000000002 18.15)"/></g><path d="M-1560 820h380v40h-380z" stroke="#000" stroke-width="2" fill="#fff"/><g><use xlink:href="#G" transform="matrix(1,0,0,1,-1555,825) translate(94.125 18.15)"/><use xlink:href="#H" transform="matrix(1,0,0,1,-1555,825) translate(160.025 18.15)"/><use xlink:href="#I" transform="matrix(1,0,0,1,-1555,825) translate(220.97500000000002 18.15)"/></g><path d="M-1560 860h380v40h-380z" stroke="#000" stroke-width="2" fill="#fff"/><g><use xlink:href="#G" transform="matrix(1,0,0,1,-1555,865) translate(137.55 18.15)"/><use xlink:href="#J" transform="matrix(1,0,0,1,-1555,865) translate(203.45000000000002 18.15)"/></g><path d="M-1370 1079" stroke="#834187" stroke-width="2" fill="none"/><path fill="#834187"/><path fill="#834187"/><path d="M-921 1065.65h600v269.5h-600z" fill-opacity="0"/><path d="M-901 1065.65h20m10 0h20m10 0h20m10 0h20m10 0h20m10 0h20m10 0h20m10 0h20m10 0h20m10 0h20m10 0h20m10 0h20m10 0h20m10 0h20m10 0h20m10 0h20m10 0h20m10 0h20m10 0h20m10 0h10v9.98m0 9.98v19.98m0 9.98v19.96m0 9.98v19.96m0 10v19.95m0 10v19.95m0 10v19.95m0 9.98v19.96m0 9.98v19.97m0 9.97v9.98h-10m-10 0h-20m-10 0h-20m-10 0h-20m-10 0h-20m-10 0h-20m-10 0h-20m-10 0h-20m-10 0h-20m-10 0h-20m-10 0h-20m-10 0h-20m-10 0h-20m-10 0h-20m-10 0h-20m-10 0h-20m-10 0h-20m-10 0h-20m-10 0h-20m-10 0h-20m-10 0h-10v-9.98m0-9.98v-19.98m0-9.98v-19.96m0-9.98v-19.96m0-10v-19.95m0-10v-19.95m0-10v-19.95m0-9.98v-19.96m0-9.98v-19.97m0-9.97v-9.98h10" stroke="#000" stroke-width="2" fill="none"/><g><use xlink:href="#d" transform="matrix(1,0,0,1,-916,1070.65) translate(115.875 258.37235200000003)"/><use xlink:href="#e" transform="matrix(1,0,0,1,-916,1070.65) translate(145.825 258.37235200000003)"/><use xlink:href="#f" transform="matrix(1,0,0,1,-916,1070.65) translate(207.675 258.37235200000003)"/><use xlink:href="#g" transform="matrix(1,0,0,1,-916,1070.65) translate(288.425 258.37235200000003)"/><use xlink:href="#h" transform="matrix(1,0,0,1,-916,1070.65) translate(347.32500000000005 258.37235200000003)"/><use xlink:href="#i" transform="matrix(1,0,0,1,-916,1070.65) translate(357.32500000000005 258.37235200000003)"/></g><path d="M-741 1264.85c0 11-35.82 19.9-80 19.9s-80-8.9-80-19.9v-159.3c0-11 35.82-19.9 80-19.9s80 8.9 80 19.9z" fill="#fff"/><path d="M-755.15 1276.13l-1.78.65-5.84 1.72-8.42 1.93-2.4.4m-9.4 1.54l-.12.02-15.93 1.6-2.9.12m-9.53.36l-6.83.27h-2.7l-9.52-.28m-9.52-.3h-.53l-16.44-1.54-2-.3m-9.42-1.47l-1.04-.17-8.83-1.95-6.1-1.76-2.45-.88m-8.63-4l-1.17-.77-.92-.72-.73-.63-.57-.56-.46-.52-.36-.47-.3-.43-.24-.4-.2-.4-.16-.36-.12-.35-.1-.32-.08-.33-.05-.32-.04-.32V1254.24m0-10.62v-21.23m0-10.62v-21.23m0-10.62v-21.24m0-10.62v-21.24m0-10.62v-10.94l.04-.3.05-.33.06-.32.1-.34.12-.34.16-.37.2-.38.23-.4.3-.43.35-.47.45-.5.55-.56.7-.64.9-.7 1.16-.8.15-.08m8.62-4l1.78-.65 5.84-1.72 8.42-1.92 2.4-.4m9.4-1.54l.12-.02 15.93-1.6 2.9-.12m9.53-.37l6.83-.27h2.7l9.52.28m9.52.3h.53l16.44 1.54 2 .3m9.42 1.47l1.04.17 8.83 1.94 6.1 1.76 2.45.87m8.63 3.98l1.17.8.92.7.73.63.57.57.46.52.36.46.3.43.24.4.2.38.16.37.12.35.1.33.08.33.05.32.04.32V1116.18m0 10.62v21.24m0 10.62v21.24m0 10.62v21.23m0 10.62v21.24m0 10.63v10.94l-.04.3-.05.34-.06.33-.1.34-.12.35-.16.36-.2.38-.23.4-.3.43-.35.46-.45.5-.55.56-.7.63-.9.7-1.16.8-.15.08" stroke="#000" stroke-width="2" fill="none"/><path d="M-741 1105.56c0 11-35.82 19.9-80 19.9s-80-8.9-80-19.9" fill="none"/><path d="M-741 1105.56v.32l-.04.32-.05.32-.06.32-.1.34-.12.35-.16.36-.2.37-.23.4-.3.43-.35.47-.45.5-.55.57-.7.62-.9.7-1.16.8-.15.08m-8.62 4l-1.78.65-5.84 1.7-8.42 1.94-2.4.4m-9.4 1.54l-.12.02-15.93 1.6-2.9.13m-9.53.37l-6.83.26h-2.7l-9.52-.28m-9.52-.3h-.53l-16.44-1.53-2-.3m-9.42-1.48l-1.04-.16-8.83-1.94-6.1-1.76-2.45-.86m-8.63-4l-1.17-.78-.92-.7-.73-.65-.57-.55-.46-.52-.36-.47-.3-.43-.24-.4-.2-.4-.16-.36-.12-.35-.1-.33-.08-.34-.05-.32-.04-.32v-.36" stroke="#000" stroke-width="2" fill="none"/><g><use xlink:href="#j" transform="matrix(1,0,0,1,-896,1130.472163265306) translate(55.005 149.08800000000002)"/></g><path d="M-541 1264.85c0 11-35.82 19.9-80 19.9s-80-8.9-80-19.9v-159.3c0-11 35.82-19.9 80-19.9s80 8.9 80 19.9z" fill="#fff"/><path d="M-555.15 1276.13l-1.78.65-5.84 1.72-8.42 1.93-2.4.4m-9.4 1.54l-.12.02-15.93 1.6-2.9.12m-9.53.36l-6.83.27h-2.7l-9.52-.28m-9.52-.3h-.53l-16.44-1.54-2-.3m-9.42-1.47l-1.04-.17-8.83-1.95-6.1-1.76-2.45-.88m-8.63-4l-1.17-.77-.92-.72-.73-.63-.57-.56-.46-.52-.36-.47-.3-.43-.24-.4-.2-.4-.16-.36-.12-.35-.1-.32-.08-.33-.05-.32-.04-.32V1254.24m0-10.62v-21.23m0-10.62v-21.23m0-10.62v-21.24m0-10.62v-21.24m0-10.62v-10.94l.04-.3.05-.33.06-.32.1-.34.12-.34.16-.37.2-.38.23-.4.3-.43.35-.47.45-.5.55-.56.7-.64.9-.7 1.16-.8.15-.08m8.62-4l1.78-.65 5.84-1.72 8.42-1.92 2.4-.4m9.4-1.54l.12-.02 15.93-1.6 2.9-.12m9.53-.37l6.83-.27h2.7l9.52.28m9.52.3h.53l16.44 1.54 2 .3m9.42 1.47l1.04.17 8.83 1.94 6.1 1.76 2.45.87m8.63 3.98l1.17.8.92.7.73.63.57.57.46.52.36.46.3.43.24.4.2.38.16.37.12.35.1.33.08.33.05.32.04.32V1116.18m0 10.62v21.24m0 10.62v21.24m0 10.62v21.23m0 10.62v21.24m0 10.63v10.94l-.04.3-.05.34-.06.33-.1.34-.12.35-.16.36-.2.38-.23.4-.3.43-.35.46-.45.5-.55.56-.7.63-.9.7-1.16.8-.15.08" stroke="#000" stroke-width="2" fill="none"/><path d="M-541 1105.56c0 11-35.82 19.9-80 19.9s-80-8.9-80-19.9" fill="none"/><path d="M-541 1105.56v.32l-.04.32-.05.32-.06.32-.1.34-.12.35-.16.36-.2.37-.23.4-.3.43-.35.47-.45.5-.55.57-.7.62-.9.7-1.16.8-.15.08m-8.62 4l-1.78.65-5.84 1.7-8.42 1.94-2.4.4m-9.4 1.54l-.12.02-15.93 1.6-2.9.13m-9.53.37l-6.83.26h-2.7l-9.52-.28m-9.52-.3h-.53l-16.44-1.53-2-.3m-9.42-1.48l-1.04-.16-8.83-1.94-6.1-1.76-2.45-.86m-8.63-4l-1.17-.78-.92-.7-.73-.65-.57-.55-.46-.52-.36-.47-.3-.43-.24-.4-.2-.4-.16-.36-.12-.35-.1-.33-.08-.34-.05-.32-.04-.32v-.36" stroke="#000" stroke-width="2" fill="none"/><g><use xlink:href="#j" transform="matrix(1,0,0,1,-696,1130.472163265306) translate(55.005 149.08800000000002)"/></g><path d="M-341 1264.85c0 11-35.82 19.9-80 19.9s-80-8.9-80-19.9v-159.3c0-11 35.82-19.9 80-19.9s80 8.9 80 19.9z" fill="#fff"/><path d="M-355.15 1276.13l-1.78.65-5.84 1.72-8.42 1.93-2.4.4m-9.4 1.54l-.12.02-15.93 1.6-2.9.12m-9.53.36l-6.83.27h-2.7l-9.52-.28m-9.52-.3h-.53l-16.44-1.54-2-.3m-9.42-1.47l-1.04-.17-8.83-1.95-6.1-1.76-2.45-.88m-8.63-4l-1.17-.77-.92-.72-.73-.63-.57-.56-.46-.52-.36-.47-.3-.43-.24-.4-.2-.4-.16-.36-.12-.35-.1-.32-.08-.33-.05-.32-.04-.32V1254.24m0-10.62v-21.23m0-10.62v-21.23m0-10.62v-21.24m0-10.62v-21.24m0-10.62v-10.94l.04-.3.05-.33.06-.32.1-.34.12-.34.16-.37.2-.38.23-.4.3-.43.35-.47.45-.5.55-.56.7-.64.9-.7 1.16-.8.15-.08m8.62-4l1.78-.65 5.84-1.72 8.42-1.92 2.4-.4m9.4-1.54l.12-.02 15.93-1.6 2.9-.12m9.53-.37l6.83-.27h2.7l9.52.28m9.52.3h.53l16.44 1.54 2 .3m9.42 1.47l1.04.17 8.83 1.94 6.1 1.76 2.45.87m8.63 3.98l1.17.8.92.7.73.63.57.57.46.52.36.46.3.43.24.4.2.38.16.37.12.35.1.33.08.33.05.32.04.32V1116.18m0 10.62v21.24m0 10.62v21.24m0 10.62v21.23m0 10.62v21.24m0 10.63v10.94l-.04.3-.05.34-.06.33-.1.34-.12.35-.16.36-.2.38-.23.4-.3.43-.35.46-.45.5-.55.56-.7.63-.9.7-1.16.8-.15.08" stroke="#000" stroke-width="2" fill="none"/><path d="M-341 1105.56c0 11-35.82 19.9-80 19.9s-80-8.9-80-19.9" fill="none"/><path d="M-341 1105.56v.32l-.04.32-.05.32-.06.32-.1.34-.12.35-.16.36-.2.37-.23.4-.3.43-.35.47-.45.5-.55.57-.7.62-.9.7-1.16.8-.15.08m-8.62 4l-1.78.65-5.84 1.7-8.42 1.94-2.4.4m-9.4 1.54l-.12.02-15.93 1.6-2.9.13m-9.53.37l-6.83.26h-2.7l-9.52-.28m-9.52-.3h-.53l-16.44-1.53-2-.3m-9.42-1.48l-1.04-.16-8.83-1.94-6.1-1.76-2.45-.86m-8.63-4l-1.17-.78-.92-.7-.73-.65-.57-.55-.46-.52-.36-.47-.3-.43-.24-.4-.2-.4-.16-.36-.12-.35-.1-.33-.08-.34-.05-.32-.04-.32v-.36" stroke="#000" stroke-width="2" fill="none"/><g><use xlink:href="#j" transform="matrix(1,0,0,1,-496,1130.472163265306) translate(55.005 149.08800000000002)"/></g><path d="M-1700 700c-22.08 0-40 17.92-40 40s17.92 40 40 40 40-17.92 40-40-17.92-40-40-40zm0 76.8c-20.32 0-36.8-16.48-36.8-36.8 0-20.32 16.48-36.8 36.8-36.8 20.32 0 36.8 16.48 36.8 36.8 0 20.32-16.48 36.8-36.8 36.8z" stroke="#fff" stroke-opacity="0" stroke-width="3" fill="#693cc5"/><path d="M-1714.4 749.6h-16c-.9 0-1.6-.7-1.6-1.6v-16c0-.9.7-1.6 1.6-1.6h16c.9 0 1.6.7 1.6 1.6v16c0 .9-.7 1.6-1.6 1.6zm-14.4-3.2h12.8v-12.8h-12.8zM-1677.6 728.8h-9.6c-.88 0-1.6-.72-1.6-1.6v-9.6c0-.88.72-1.6 1.6-1.6h9.6c.88 0 1.6.72 1.6 1.6v9.6c0 .88-.72 1.6-1.6 1.6zm-8-3.2h6.4v-6.4h-6.4zM-1677.6 746.4h-9.6c-.88 0-1.6-.72-1.6-1.6v-9.6c0-.88.72-1.6 1.6-1.6h9.6c.88 0 1.6.72 1.6 1.6v9.6c0 .88-.72 1.6-1.6 1.6zm-8-3.2h6.4v-6.4h-6.4zM-1677.6 764h-9.6c-.88 0-1.6-.72-1.6-1.6v-9.6c0-.88.72-1.6 1.6-1.6h9.6c.88 0 1.6.72 1.6 1.6v9.6c0 .88-.72 1.6-1.6 1.6zm-8-3.2h6.4v-6.4h-6.4zM-1690.87 741.13l-5.38 5.38-2.27-2.24 2.65-2.66h-13.73v-3.2h13.73l-2.65-2.66 2.27-2.25 5.38 5.37c.63.62.63 1.62.02 2.26h-.02zM-1691.75 723.22l-1.98 7.35-3.06-.84 1.02-3.8-14.2 7.48-1.48-2.8 13.86-7.32-3.45-.88.83-3.2 7.36 2c.86.2 1.37 1.08 1.13 1.94 0 .02 0 .05-.02.08zM-1692.86 758.76l-7.35 2.04-.86-3.2 3.45-.94-13.87-7.32 1.48-2.8 14.2 7.48-1-3.75 3.1-.83 1.97 7.35c.24.83-.28 1.72-1.13 1.94v.02z" stroke="#fff" stroke-opacity="0" stroke-width="3" fill="#693cc5"/><g><use xlink:href="#M" transform="matrix(1,0,0,1,-1770,789) translate(0 14.4)"/><use xlink:href="#N" transform="matrix(1,0,0,1,-1770,789) translate(70.85000000000001 14.4)"/><use xlink:href="#O" transform="matrix(1,0,0,1,-1770,789) translate(0 36)"/></g><path d="M-1659.5 740h62.12" stroke="#000" fill="none"/><path d="M-1659.5 740.5h-.52l.02-.5-.03-.5h.54z"/><path d="M-1582.62 740l-14.26 4.64v-9.28z" stroke="#000"/><defs><path d="M190 0L58-211 59 0H30v-248h39L202-35l-2-213h31V0h-41" id="P"/><path d="M185-189c-5-48-123-54-124 2 14 75 158 14 163 119 3 78-121 87-175 55-17-10-28-26-33-46l33-7c5 56 141 63 141-1 0-78-155-14-162-118-5-82 145-84 179-34 5 7 8 16 11 25" id="Q"/><path d="M140-251c81 0 123 46 123 126C263-53 228-8 163 1c7 30 30 48 69 40v23c-55 16-95-15-103-61C56-3 17-48 17-125c0-80 42-126 123-126zm0 227c63 0 89-41 89-101s-29-99-89-99c-61 0-89 39-89 99S79-25 140-24" id="R"/><g id="a"><use transform="matrix(0.05,0,0,0.05,0,0)" xlink:href="#P"/><use transform="matrix(0.05,0,0,0.05,12.950000000000001,0)" xlink:href="#Q"/><use transform="matrix(0.05,0,0,0.05,24.950000000000003,0)" xlink:href="#R"/></g><path d="M194 0L95-120 63-95V0H30v-248h33v124l119-124h40L117-140 236 0h-42" id="S"/><path d="M205 0l-28-72H64L36 0H1l101-248h38L239 0h-34zm-38-99l-47-123c-12 45-31 82-46 123h93" id="T"/><path d="M63-220v92h138v28H63V0H30v-248h175v28H63" id="U"/><g id="b"><use transform="matrix(0.05,0,0,0.05,0,0)" xlink:href="#S"/><use transform="matrix(0.05,0,0,0.05,12,0)" xlink:href="#T"/><use transform="matrix(0.05,0,0,0.05,24,0)" xlink:href="#U"/><use transform="matrix(0.05,0,0,0.05,34.95,0)" xlink:href="#S"/><use transform="matrix(0.05,0,0,0.05,46.95,0)" xlink:href="#T"/></g><path d="M30 0v-248h187v28H63v79h144v27H63v87h162V0H30" id="V"/><path d="M127-220V0H93v-220H8v-28h204v28h-85" id="W"/><path d="M212-179c-10-28-35-45-73-45-59 0-87 40-87 99 0 60 29 101 89 101 43 0 62-24 78-52l27 14C228-24 195 4 139 4 59 4 22-46 18-125c-6-104 99-153 187-111 19 9 31 26 39 46" id="X"/><g id="c"><use transform="matrix(0.05,0,0,0.05,0,0)" xlink:href="#V"/><use transform="matrix(0.05,0,0,0.05,12,0)" xlink:href="#W"/><use transform="matrix(0.05,0,0,0.05,22.950000000000003,0)" xlink:href="#X"/></g><path d="M30-248c118-7 216 8 213 122C240-48 200 0 122 0H30v-248zM63-27c89 8 146-16 146-99s-60-101-146-95v194" id="Y"/><path d="M160-131c35 5 61 23 61 61C221 17 115-2 30 0v-248c76 3 177-17 177 60 0 33-19 50-47 57zm-97-11c50-1 110 9 110-42 0-47-63-36-110-37v79zm0 115c55-2 124 14 124-45 0-56-70-42-124-44v89" id="Z"/><g id="d"><use transform="matrix(0.05,0,0,0.05,0,0)" xlink:href="#Y"/><use transform="matrix(0.05,0,0,0.05,12.950000000000001,0)" xlink:href="#Z"/></g><path d="M24 0v-261h32V0H24" id="aa"/><path d="M84 4C-5 8 30-112 23-190h32v120c0 31 7 50 39 49 72-2 45-101 50-169h31l1 190h-30c-1-10 1-25-2-33-11 22-28 36-60 37" id="ab"/><path d="M135-143c-3-34-86-38-87 0 15 53 115 12 119 90S17 21 10-45l28-5c4 36 97 45 98 0-10-56-113-15-118-90-4-57 82-63 122-42 12 7 21 19 24 35" id="ac"/><path d="M59-47c-2 24 18 29 38 22v24C64 9 27 4 27-40v-127H5v-23h24l9-43h21v43h35v23H59v120" id="ad"/><path d="M100-194c63 0 86 42 84 106H49c0 40 14 67 53 68 26 1 43-12 49-29l28 8c-11 28-37 45-77 45C44 4 14-33 15-96c1-61 26-98 85-98zm52 81c6-60-76-77-97-28-3 7-6 17-6 28h103" id="ae"/><path d="M114-163C36-179 61-72 57 0H25l-1-190h30c1 12-1 29 2 39 6-27 23-49 58-41v29" id="af"/><g id="e"><use transform="matrix(0.05,0,0,0.05,0,0)" xlink:href="#X"/><use transform="matrix(0.05,0,0,0.05,12.950000000000001,0)" xlink:href="#aa"/><use transform="matrix(0.05,0,0,0.05,16.900000000000002,0)" xlink:href="#ab"/><use transform="matrix(0.05,0,0,0.05,26.900000000000002,0)" xlink:href="#ac"/><use transform="matrix(0.05,0,0,0.05,35.900000000000006,0)" xlink:href="#ad"/><use transform="matrix(0.05,0,0,0.05,40.900000000000006,0)" xlink:href="#ae"/><use transform="matrix(0.05,0,0,0.05,50.900000000000006,0)" xlink:href="#af"/></g><path d="M87 75C49 33 22-17 22-94c0-76 28-126 65-167h31c-38 41-64 92-64 168S80 34 118 75H87" id="ag"/><path d="M240 0l2-218c-23 76-54 145-80 218h-23L58-218 59 0H30v-248h44l77 211c21-75 51-140 76-211h43V0h-30" id="ah"/><path d="M141-36C126-15 110 5 73 4 37 3 15-17 15-53c-1-64 63-63 125-63 3-35-9-54-41-54-24 1-41 7-42 31l-33-3c5-37 33-52 76-52 45 0 72 20 72 64v82c-1 20 7 32 28 27v20c-31 9-61-2-59-35zM48-53c0 20 12 33 32 33 41-3 63-29 60-74-43 2-92-5-92 41" id="ai"/><path d="M24-231v-30h32v30H24zM24 0v-190h32V0H24" id="aj"/><g id="f"><use transform="matrix(0.05,0,0,0.05,0,0)" xlink:href="#ag"/><use transform="matrix(0.05,0,0,0.05,5.95,0)" xlink:href="#ah"/><use transform="matrix(0.05,0,0,0.05,20.900000000000002,0)" xlink:href="#ai"/><use transform="matrix(0.05,0,0,0.05,30.900000000000002,0)" xlink:href="#af"/><use transform="matrix(0.05,0,0,0.05,36.85,0)" xlink:href="#aj"/><use transform="matrix(0.05,0,0,0.05,40.800000000000004,0)" xlink:href="#ai"/><use transform="matrix(0.05,0,0,0.05,50.800000000000004,0)" xlink:href="#Y"/><use transform="matrix(0.05,0,0,0.05,63.75,0)" xlink:href="#Z"/></g><path d="M143 4C61 4 22-44 18-125c-5-107 100-154 193-111 17 8 29 25 37 43l-32 9c-13-25-37-40-76-40-61 0-88 39-88 99 0 61 29 100 91 101 35 0 62-11 79-27v-45h-74v-28h105v86C228-13 192 4 143 4" id="ak"/><g id="g"><use transform="matrix(0.05,0,0,0.05,0,0)" xlink:href="#ak"/><use transform="matrix(0.05,0,0,0.05,14,0)" xlink:href="#ai"/><use transform="matrix(0.05,0,0,0.05,24,0)" xlink:href="#aa"/><use transform="matrix(0.05,0,0,0.05,27.950000000000003,0)" xlink:href="#ae"/><use transform="matrix(0.05,0,0,0.05,37.95,0)" xlink:href="#af"/><use transform="matrix(0.05,0,0,0.05,43.900000000000006,0)" xlink:href="#ai"/></g><path d="M0 4l72-265h28L28 4H0" id="al"/><use transform="matrix(0.05,0,0,0.05,0,0)" xlink:href="#al" id="h"/><path d="M100-194c62-1 85 37 85 99 1 63-27 99-86 99S16-35 15-95c0-66 28-99 85-99zM99-20c44 1 53-31 53-75 0-43-8-75-51-75s-53 32-53 75 10 74 51 75" id="am"/><path d="M96-169c-40 0-48 33-48 73s9 75 48 75c24 0 41-14 43-38l32 2c-6 37-31 61-74 61-59 0-76-41-82-99-10-93 101-131 147-64 4 7 5 14 7 22l-32 3c-4-21-16-35-41-35" id="an"/><path d="M143 0L79-87 56-68V0H24v-261h32v163l83-92h37l-77 82L181 0h-38" id="ao"/><path d="M106-169C34-169 62-67 57 0H25v-261h32l-1 103c12-21 28-36 61-36 89 0 53 116 60 194h-32v-121c2-32-8-49-39-48" id="ap"/><path d="M33-261c38 41 65 92 65 168S71 34 33 75H2C39 34 66-17 66-93S39-220 2-261h31" id="aq"/><g id="i"><use transform="matrix(0.05,0,0,0.05,0,0)" xlink:href="#X"/><use transform="matrix(0.05,0,0,0.05,12.950000000000001,0)" xlink:href="#am"/><use transform="matrix(0.05,0,0,0.05,22.950000000000003,0)" xlink:href="#an"/><use transform="matrix(0.05,0,0,0.05,31.950000000000003,0)" xlink:href="#ao"/><use transform="matrix(0.05,0,0,0.05,40.95,0)" xlink:href="#af"/><use transform="matrix(0.05,0,0,0.05,46.900000000000006,0)" xlink:href="#am"/><use transform="matrix(0.05,0,0,0.05,56.900000000000006,0)" xlink:href="#ai"/><use transform="matrix(0.05,0,0,0.05,66.9,0)" xlink:href="#an"/><use transform="matrix(0.05,0,0,0.05,75.9,0)" xlink:href="#ap"/><use transform="matrix(0.05,0,0,0.05,85.9,0)" xlink:href="#Y"/><use transform="matrix(0.05,0,0,0.05,98.85000000000001,0)" xlink:href="#Z"/><use transform="matrix(0.05,0,0,0.05,110.85000000000001,0)" xlink:href="#aq"/></g><path d="M117-194c89-4 53 116 60 194h-32v-121c0-31-8-49-39-48C34-167 62-67 57 0H25l-1-190h30c1 10-1 24 2 32 11-22 29-35 61-36" id="ar"/><path d="M85-194c31 0 48 13 60 33l-1-100h32l1 261h-30c-2-10 0-23-3-31C134-8 116 4 85 4 32 4 16-35 15-94c0-66 23-100 70-100zm9 24c-40 0-46 34-46 75 0 40 6 74 45 74 42 0 51-32 51-76 0-42-9-74-50-73" id="as"/><g id="j"><use transform="matrix(0.05,0,0,0.05,0,0)" xlink:href="#ar"/><use transform="matrix(0.05,0,0,0.05,10,0)" xlink:href="#am"/><use transform="matrix(0.05,0,0,0.05,20,0)" xlink:href="#as"/><use transform="matrix(0.05,0,0,0.05,30,0)" xlink:href="#ae"/></g><path d="M266 0h-40l-56-210L115 0H75L2-248h35L96-30l15-64 43-154h32l59 218 59-218h35" id="at"/><path d="M115-194c53 0 69 39 70 98 0 66-23 100-70 100C84 3 66-7 56-30L54 0H23l1-261h32v101c10-23 28-34 59-34zm-8 174c40 0 45-34 45-75 0-40-5-75-45-74-42 0-51 32-51 76 0 43 10 73 51 73" id="au"/><g id="k"><use transform="matrix(0.05,0,0,0.05,0,0)" xlink:href="#at"/><use transform="matrix(0.05,0,0,0.05,16.599999999999998,0)" xlink:href="#ae"/><use transform="matrix(0.05,0,0,0.05,26.599999999999994,0)" xlink:href="#au"/></g><g id="l"><use transform="matrix(0.05,0,0,0.05,0,0)" xlink:href="#at"/><use transform="matrix(0.05,0,0,0.05,16.599999999999998,0)" xlink:href="#ae"/><use transform="matrix(0.05,0,0,0.05,26.599999999999994,0)" xlink:href="#au"/></g><path d="M16-82v-28h88v28H16" id="av"/><g id="m"><use transform="matrix(0.05,0,0,0.05,0,0)" xlink:href="#at"/><use transform="matrix(0.05,0,0,0.05,16.599999999999998,0)" xlink:href="#ae"/><use transform="matrix(0.05,0,0,0.05,26.599999999999994,0)" xlink:href="#au"/><use transform="matrix(0.05,0,0,0.05,36.599999999999994,0)" xlink:href="#av"/><use transform="matrix(0.05,0,0,0.05,42.55,0)" xlink:href="#Y"/><use transform="matrix(0.05,0,0,0.05,55.5,0)" xlink:href="#Z"/><use transform="matrix(0.05,0,0,0.05,67.5,0)" xlink:href="#av"/><use transform="matrix(0.05,0,0,0.05,73.45,0)" xlink:href="#ar"/><use transform="matrix(0.05,0,0,0.05,83.45,0)" xlink:href="#ae"/><use transform="matrix(0.05,0,0,0.05,93.45,0)" xlink:href="#ad"/></g><path d="M177-190C167-65 218 103 67 71c-23-6-38-20-44-43l32-5c15 47 100 32 89-28v-30C133-14 115 1 83 1 29 1 15-40 15-95c0-56 16-97 71-98 29-1 48 16 59 35 1-10 0-23 2-32h30zM94-22c36 0 50-32 50-73 0-42-14-75-50-75-39 0-46 34-46 75s6 73 46 73" id="aw"/><g id="n"><use transform="matrix(0.05,0,0,0.05,0,0)" xlink:href="#ah"/><use transform="matrix(0.05,0,0,0.05,14.950000000000001,0)" xlink:href="#ae"/><use transform="matrix(0.05,0,0,0.05,24.950000000000003,0)" xlink:href="#ac"/><use transform="matrix(0.05,0,0,0.05,33.95,0)" xlink:href="#ac"/><use transform="matrix(0.05,0,0,0.05,42.95,0)" xlink:href="#ai"/><use transform="matrix(0.05,0,0,0.05,52.95,0)" xlink:href="#aw"/><use transform="matrix(0.05,0,0,0.05,62.95,0)" xlink:href="#aj"/><use transform="matrix(0.05,0,0,0.05,66.9,0)" xlink:href="#ar"/><use transform="matrix(0.05,0,0,0.05,76.9,0)" xlink:href="#aw"/></g><g id="o"><use transform="matrix(0.05,0,0,0.05,0,0)" xlink:href="#R"/><use transform="matrix(0.05,0,0,0.05,14,0)" xlink:href="#ab"/><use transform="matrix(0.05,0,0,0.05,24,0)" xlink:href="#ae"/><use transform="matrix(0.05,0,0,0.05,34,0)" xlink:href="#ab"/><use transform="matrix(0.05,0,0,0.05,44,0)" xlink:href="#ae"/></g><path d="M179-190L93 31C79 59 56 82 12 73V49c39 6 53-20 64-50L1-190h34L92-34l54-156h33" id="ax"/><g id="p"><use transform="matrix(0.05,0,0,0.05,0,0)" xlink:href="#ag"/><use transform="matrix(0.05,0,0,0.05,5.95,0)" xlink:href="#S"/><use transform="matrix(0.05,0,0,0.05,17.95,0)" xlink:href="#T"/><use transform="matrix(0.05,0,0,0.05,29.950000000000003,0)" xlink:href="#U"/><use transform="matrix(0.05,0,0,0.05,40.9,0)" xlink:href="#S"/><use transform="matrix(0.05,0,0,0.05,52.900000000000006,0)" xlink:href="#T"/><use transform="matrix(0.05,0,0,0.05,64.9,0)" xlink:href="#al"/><use transform="matrix(0.05,0,0,0.05,69.9,0)" xlink:href="#P"/><use transform="matrix(0.05,0,0,0.05,82.85000000000001,0)" xlink:href="#T"/><use transform="matrix(0.05,0,0,0.05,93.50000000000001,0)" xlink:href="#W"/><use transform="matrix(0.05,0,0,0.05,104.45,0)" xlink:href="#Q"/><use transform="matrix(0.05,0,0,0.05,116.45,0)" xlink:href="#al"/><use transform="matrix(0.05,0,0,0.05,121.45,0)" xlink:href="#ah"/><use transform="matrix(0.05,0,0,0.05,136.4,0)" xlink:href="#ai"/><use transform="matrix(0.05,0,0,0.05,146.4,0)" xlink:href="#an"/><use transform="matrix(0.05,0,0,0.05,155.4,0)" xlink:href="#ap"/><use transform="matrix(0.05,0,0,0.05,165.4,0)" xlink:href="#aj"/><use transform="matrix(0.05,0,0,0.05,169.35,0)" xlink:href="#ar"/><use transform="matrix(0.05,0,0,0.05,179.35,0)" xlink:href="#ae"/><use transform="matrix(0.05,0,0,0.05,189.35,0)" xlink:href="#af"/><use transform="matrix(0.05,0,0,0.05,195.29999999999998,0)" xlink:href="#ax"/><use transform="matrix(0.05,0,0,0.05,204.29999999999998,0)" xlink:href="#al"/><use transform="matrix(0.05,0,0,0.05,209.29999999999995,0)" xlink:href="#ae"/><use transform="matrix(0.05,0,0,0.05,219.29999999999995,0)" xlink:href="#ad"/><use transform="matrix(0.05,0,0,0.05,224.29999999999995,0)" xlink:href="#an"/><use transform="matrix(0.05,0,0,0.05,233.29999999999995,0)" xlink:href="#aq"/></g><g id="q"><use transform="matrix(0.05,0,0,0.05,0,0)" xlink:href="#ah"/><use transform="matrix(0.05,0,0,0.05,14.950000000000001,0)" xlink:href="#ai"/><use transform="matrix(0.05,0,0,0.05,24.950000000000003,0)" xlink:href="#ac"/><use transform="matrix(0.05,0,0,0.05,33.95,0)" xlink:href="#ad"/><use transform="matrix(0.05,0,0,0.05,38.95,0)" xlink:href="#ae"/><use transform="matrix(0.05,0,0,0.05,48.95,0)" xlink:href="#af"/><use transform="matrix(0.05,0,0,0.05,54.900000000000006,0)" xlink:href="#av"/><use transform="matrix(0.05,0,0,0.05,60.85,0)" xlink:href="#R"/><use transform="matrix(0.05,0,0,0.05,74.85000000000001,0)" xlink:href="#ab"/><use transform="matrix(0.05,0,0,0.05,84.85000000000001,0)" xlink:href="#ae"/><use transform="matrix(0.05,0,0,0.05,94.85000000000001,0)" xlink:href="#ab"/><use transform="matrix(0.05,0,0,0.05,104.85000000000001,0)" xlink:href="#ae"/></g><g id="r"><use transform="matrix(0.05,0,0,0.05,0,0)" xlink:href="#P"/><use transform="matrix(0.05,0,0,0.05,12.950000000000001,0)" xlink:href="#ae"/><use transform="matrix(0.05,0,0,0.05,22.950000000000003,0)" xlink:href="#ad"/></g><path d="M115-194c55 1 70 41 70 98S169 2 115 4C84 4 66-9 55-30l1 105H24l-1-265h31l2 30c10-21 28-34 59-34zm-8 174c40 0 45-34 45-75s-6-73-45-74c-42 0-51 32-51 76 0 43 10 73 51 73" id="ay"/><g id="s"><use transform="matrix(0.05,0,0,0.05,0,0)" xlink:href="#ak"/><use transform="matrix(0.05,0,0,0.05,14,0)" xlink:href="#af"/><use transform="matrix(0.05,0,0,0.05,19.95,0)" xlink:href="#am"/><use transform="matrix(0.05,0,0,0.05,29.950000000000003,0)" xlink:href="#ab"/><use transform="matrix(0.05,0,0,0.05,39.95,0)" xlink:href="#ay"/></g><path d="M27 0v-27h64v-190l-56 39v-29l58-41h29v221h61V0H27" id="az"/><use transform="matrix(0.05,0,0,0.05,0,0)" xlink:href="#az" id="t"/><g id="u"><use transform="matrix(0.05,0,0,0.05,0,0)" xlink:href="#Q"/><use transform="matrix(0.05,0,0,0.05,12,0)" xlink:href="#an"/><use transform="matrix(0.05,0,0,0.05,21,0)" xlink:href="#am"/><use transform="matrix(0.05,0,0,0.05,31,0)" xlink:href="#af"/><use transform="matrix(0.05,0,0,0.05,36.95,0)" xlink:href="#aj"/><use transform="matrix(0.05,0,0,0.05,40.900000000000006,0)" xlink:href="#ar"/><use transform="matrix(0.05,0,0,0.05,50.900000000000006,0)" xlink:href="#aw"/></g><g id="v"><use transform="matrix(0.05,0,0,0.05,0,0)" xlink:href="#at"/><use transform="matrix(0.05,0,0,0.05,16.599999999999998,0)" xlink:href="#am"/><use transform="matrix(0.05,0,0,0.05,26.599999999999994,0)" xlink:href="#af"/><use transform="matrix(0.05,0,0,0.05,32.55,0)" xlink:href="#ao"/><use transform="matrix(0.05,0,0,0.05,41.55,0)" xlink:href="#ae"/><use transform="matrix(0.05,0,0,0.05,51.54999999999999,0)" xlink:href="#af"/></g><path d="M101-251c82-7 93 87 43 132L82-64C71-53 59-42 53-27h129V0H18c2-99 128-94 128-182 0-28-16-43-45-43s-46 15-49 41l-32-3c6-41 34-60 81-64" id="aA"/><use transform="matrix(0.05,0,0,0.05,0,0)" xlink:href="#aA" id="w"/><path d="M126-127c33 6 58 20 58 59 0 88-139 92-164 29-3-8-5-16-6-25l32-3c6 27 21 44 54 44 32 0 52-15 52-46 0-38-36-46-79-43v-28c39 1 72-4 72-42 0-27-17-43-46-43-28 0-47 15-49 41l-32-3c6-42 35-63 81-64 48-1 79 21 79 65 0 36-21 52-52 59" id="aB"/><use transform="matrix(0.05,0,0,0.05,0,0)" xlink:href="#aB" id="x"/><path d="M155-56V0h-30v-56H8v-25l114-167h33v167h35v25h-35zm-30-156c-27 46-58 90-88 131h88v-131" id="aC"/><use transform="matrix(0.05,0,0,0.05,0,0)" xlink:href="#aC" id="y"/><path d="M54-142c48-35 137-8 131 61C196 18 31 33 14-55l32-4c7 23 22 37 52 37 35-1 51-22 54-58 4-55-73-65-99-34H22l8-134h141v27H59" id="aD"/><use transform="matrix(0.05,0,0,0.05,0,0)" xlink:href="#aD" id="z"/><path d="M110-160c48 1 74 30 74 79 0 53-28 85-80 85-65 0-83-55-86-122-5-90 50-162 133-122 14 7 22 21 27 39l-31 6c-5-40-67-38-82-6-9 19-15 44-15 74 11-20 30-34 60-33zm-7 138c34 0 49-23 49-58s-16-56-50-56c-29 0-50 16-49 49 1 36 15 65 50 65" id="aE"/><use transform="matrix(0.05,0,0,0.05,0,0)" xlink:href="#aE" id="A"/><g id="B"><use transform="matrix(0.05,0,0,0.05,0,0)" xlink:href="#P"/><use transform="matrix(0.05,0,0,0.05,12.950000000000001,0)" xlink:href="#am"/><use transform="matrix(0.05,0,0,0.05,22.950000000000003,0)" xlink:href="#as"/><use transform="matrix(0.05,0,0,0.05,32.95,0)" xlink:href="#ae"/></g><g id="C"><use transform="matrix(0.05,0,0,0.05,0,0)" xlink:href="#P"/><use transform="matrix(0.05,0,0,0.05,12.950000000000001,0)" xlink:href="#ae"/><use transform="matrix(0.05,0,0,0.05,22.950000000000003,0)" xlink:href="#ad"/></g><g id="D"><use transform="matrix(0.05,0,0,0.05,0,0)" xlink:href="#P"/><use transform="matrix(0.05,0,0,0.05,12.950000000000001,0)" xlink:href="#am"/><use transform="matrix(0.05,0,0,0.05,22.950000000000003,0)" xlink:href="#as"/><use transform="matrix(0.05,0,0,0.05,32.95,0)" xlink:href="#ae"/></g><g id="E"><use transform="matrix(0.05,0,0,0.05,0,0)" xlink:href="#R"/><use transform="matrix(0.05,0,0,0.05,14,0)" xlink:href="#ab"/><use transform="matrix(0.05,0,0,0.05,24,0)" xlink:href="#ae"/><use transform="matrix(0.05,0,0,0.05,34,0)" xlink:href="#ab"/><use transform="matrix(0.05,0,0,0.05,44,0)" xlink:href="#ae"/></g><g id="F"><use transform="matrix(0.05,0,0,0.05,0,0)" xlink:href="#ah"/><use transform="matrix(0.05,0,0,0.05,14.950000000000001,0)" xlink:href="#ai"/><use transform="matrix(0.05,0,0,0.05,24.950000000000003,0)" xlink:href="#ac"/><use transform="matrix(0.05,0,0,0.05,33.95,0)" xlink:href="#ad"/><use transform="matrix(0.05,0,0,0.05,38.95,0)" xlink:href="#ae"/><use transform="matrix(0.05,0,0,0.05,48.95,0)" xlink:href="#af"/><use transform="matrix(0.05,0,0,0.05,54.900000000000006,0)" xlink:href="#av"/><use transform="matrix(0.05,0,0,0.05,60.85,0)" xlink:href="#Y"/><use transform="matrix(0.05,0,0,0.05,73.80000000000001,0)" xlink:href="#Z"/><use transform="matrix(0.05,0,0,0.05,85.80000000000001,0)" xlink:href="#av"/><use transform="matrix(0.05,0,0,0.05,91.75000000000001,0)" xlink:href="#ar"/><use transform="matrix(0.05,0,0,0.05,101.75000000000001,0)" xlink:href="#ae"/><use transform="matrix(0.05,0,0,0.05,111.75,0)" xlink:href="#ad"/></g><g id="G"><use transform="matrix(0.05,0,0,0.05,0,0)" xlink:href="#Q"/><use transform="matrix(0.05,0,0,0.05,12,0)" xlink:href="#an"/><use transform="matrix(0.05,0,0,0.05,21,0)" xlink:href="#am"/><use transform="matrix(0.05,0,0,0.05,31,0)" xlink:href="#af"/><use transform="matrix(0.05,0,0,0.05,36.95,0)" xlink:href="#aj"/><use transform="matrix(0.05,0,0,0.05,40.900000000000006,0)" xlink:href="#ar"/><use transform="matrix(0.05,0,0,0.05,50.900000000000006,0)" xlink:href="#aw"/></g><g id="H"><use transform="matrix(0.05,0,0,0.05,0,0)" xlink:href="#V"/><use transform="matrix(0.05,0,0,0.05,12,0)" xlink:href="#ar"/><use transform="matrix(0.05,0,0,0.05,22,0)" xlink:href="#aw"/><use transform="matrix(0.05,0,0,0.05,32,0)" xlink:href="#aj"/><use transform="matrix(0.05,0,0,0.05,35.95,0)" xlink:href="#ar"/><use transform="matrix(0.05,0,0,0.05,45.95,0)" xlink:href="#ae"/></g><g id="I"><use transform="matrix(0.05,0,0,0.05,0,0)" xlink:href="#ah"/><use transform="matrix(0.05,0,0,0.05,14.950000000000001,0)" xlink:href="#ai"/><use transform="matrix(0.05,0,0,0.05,24.950000000000003,0)" xlink:href="#ac"/><use transform="matrix(0.05,0,0,0.05,33.95,0)" xlink:href="#ad"/><use transform="matrix(0.05,0,0,0.05,38.95,0)" xlink:href="#ae"/><use transform="matrix(0.05,0,0,0.05,48.95,0)" xlink:href="#af"/></g><path d="M30-248c87 1 191-15 191 75 0 78-77 80-158 76V0H30v-248zm33 125c57 0 124 11 124-50 0-59-68-47-124-48v98" id="aF"/><path d="M33 0v-248h34V0H33" id="aG"/><g id="J"><use transform="matrix(0.05,0,0,0.05,0,0)" xlink:href="#T"/><use transform="matrix(0.05,0,0,0.05,12,0)" xlink:href="#aF"/><use transform="matrix(0.05,0,0,0.05,24,0)" xlink:href="#aG"/></g><path d="M108 0H70L1-190h34L89-25l56-165h34" id="aH"/><g id="K"><use transform="matrix(0.05,0,0,0.05,0,0)" xlink:href="#Q"/><use transform="matrix(0.05,0,0,0.05,12,0)" xlink:href="#ai"/><use transform="matrix(0.05,0,0,0.05,22,0)" xlink:href="#aH"/><use transform="matrix(0.05,0,0,0.05,31,0)" xlink:href="#aj"/><use transform="matrix(0.05,0,0,0.05,34.95,0)" xlink:href="#ar"/><use transform="matrix(0.05,0,0,0.05,44.95,0)" xlink:href="#aw"/></g><path d="M101-234c-31-9-42 10-38 44h38v23H63V0H32v-167H5v-23h27c-7-52 17-82 69-68v24" id="aI"/><g id="L"><use transform="matrix(0.05,0,0,0.05,0,0)" xlink:href="#X"/><use transform="matrix(0.05,0,0,0.05,12.950000000000001,0)" xlink:href="#am"/><use transform="matrix(0.05,0,0,0.05,22.950000000000003,0)" xlink:href="#ar"/><use transform="matrix(0.05,0,0,0.05,32.95,0)" xlink:href="#aI"/><use transform="matrix(0.05,0,0,0.05,37.95,0)" xlink:href="#aj"/><use transform="matrix(0.05,0,0,0.05,41.900000000000006,0)" xlink:href="#aw"/><use transform="matrix(0.05,0,0,0.05,51.900000000000006,0)" xlink:href="#ab"/><use transform="matrix(0.05,0,0,0.05,61.900000000000006,0)" xlink:href="#af"/><use transform="matrix(0.05,0,0,0.05,67.85000000000001,0)" xlink:href="#ai"/><use transform="matrix(0.05,0,0,0.05,77.85000000000001,0)" xlink:href="#ad"/><use transform="matrix(0.05,0,0,0.05,82.85000000000001,0)" xlink:href="#aj"/><use transform="matrix(0.05,0,0,0.05,86.80000000000001,0)" xlink:href="#am"/><use transform="matrix(0.05,0,0,0.05,96.80000000000001,0)" xlink:href="#ar"/></g><path d="M206 0h-36l-40-164L89 0H53L-1-190h32L70-26l43-164h34l41 164 42-164h31" id="aJ"/><g id="M"><use transform="matrix(0.05,0,0,0.05,0,0)" xlink:href="#P"/><use transform="matrix(0.05,0,0,0.05,12.950000000000001,0)" xlink:href="#ae"/><use transform="matrix(0.05,0,0,0.05,22.950000000000003,0)" xlink:href="#ad"/><use transform="matrix(0.05,0,0,0.05,27.950000000000003,0)" xlink:href="#aJ"/><use transform="matrix(0.05,0,0,0.05,40.900000000000006,0)" xlink:href="#am"/><use transform="matrix(0.05,0,0,0.05,50.900000000000006,0)" xlink:href="#af"/><use transform="matrix(0.05,0,0,0.05,56.85,0)" xlink:href="#ao"/></g><path d="M30 0v-248h33v221h125V0H30" id="aK"/><g id="N"><use transform="matrix(0.05,0,0,0.05,0,0)" xlink:href="#aK"/><use transform="matrix(0.05,0,0,0.05,10,0)" xlink:href="#am"/><use transform="matrix(0.05,0,0,0.05,20,0)" xlink:href="#ai"/><use transform="matrix(0.05,0,0,0.05,30,0)" xlink:href="#as"/></g><g id="O"><use transform="matrix(0.05,0,0,0.05,0,0)" xlink:href="#Z"/><use transform="matrix(0.05,0,0,0.05,12,0)" xlink:href="#ai"/><use transform="matrix(0.05,0,0,0.05,22,0)" xlink:href="#aa"/><use transform="matrix(0.05,0,0,0.05,25.950000000000003,0)" xlink:href="#ai"/><use transform="matrix(0.05,0,0,0.05,35.95,0)" xlink:href="#ar"/><use transform="matrix(0.05,0,0,0.05,45.95,0)" xlink:href="#an"/><use transform="matrix(0.05,0,0,0.05,54.95,0)" xlink:href="#ae"/><use transform="matrix(0.05,0,0,0.05,64.95,0)" xlink:href="#af"/></g></defs></g></svg>